<svg width="22" height="22" viewBox="0 0 22 22" fill="none" xmlns="http://www.w3.org/2000/svg">
<path d="M2.24997 8.99998C2.24997 10.8565 2.98747 12.637 4.30022 13.9497C5.61298 15.2625 7.39345 16 9.24997 16C10.8045 16.0019 12.3146 15.4811 13.5375 14.5212L17.3787 18.3712C17.4601 18.4532 17.5568 18.5183 17.6635 18.5628C17.7701 18.6072 17.8845 18.6301 18 18.6301C18.1155 18.6301 18.2298 18.6072 18.3365 18.5628C18.4431 18.5183 18.5399 18.4532 18.6212 18.3712C18.7032 18.2899 18.7683 18.1931 18.8127 18.0865C18.8572 17.9799 18.88 17.8655 18.88 17.75C18.88 17.6345 18.8572 17.5201 18.8127 17.4135C18.7683 17.3069 18.7032 17.2101 18.6212 17.1287L14.7712 13.2875C15.7311 12.0646 16.2519 10.5546 16.25 8.99998C16.25 7.14347 15.5125 5.36299 14.1997 4.05024C12.887 2.73748 11.1065 1.99998 9.24997 1.99998C7.39345 1.99998 5.61298 2.73748 4.30022 4.05024C2.98747 5.36299 2.24997 7.14347 2.24997 8.99998V8.99998ZM9.24997 3.74998C10.2883 3.74998 11.3034 4.05789 12.1667 4.63477C13.0301 5.21165 13.703 6.03158 14.1003 6.9909C14.4977 7.95021 14.6017 9.00581 14.3991 10.0242C14.1965 11.0426 13.6965 11.9781 12.9623 12.7123C12.2281 13.4465 11.2926 13.9465 10.2742 14.1491C9.25579 14.3517 8.20019 14.2477 7.24088 13.8504C6.28157 13.453 5.46163 12.7801 4.88475 11.9167C4.30788 11.0534 3.99997 10.0383 3.99997 8.99998C3.99997 7.6076 4.55309 6.27224 5.53766 5.28767C6.52222 4.30311 7.85758 3.74998 9.24997 3.74998V3.74998Z" fill="#C1BBB9"/>
</svg>
