<svg width="20" height="18" viewBox="0 0 20 18" fill="none" xmlns="http://www.w3.org/2000/svg">
<path d="M17 10V8C17 6.11438 17 5.17157 16.4142 4.58579C15.8284 4 14.8856 4 13 4H11.6569C10.8394 4 10.4306 4 10.0631 3.84776C9.69552 3.69552 9.40649 3.40649 8.82843 2.82843L8.17157 2.17157C7.59351 1.59351 7.30448 1.30448 6.93694 1.15224C6.5694 1 6.16065 1 5.34315 1H5C3.11438 1 2.17157 1 1.58579 1.58579C1 2.17157 1 3.11438 1 5V11C1 12.8856 1 13.8284 1.58579 14.4142C2.17157 15 3.11438 15 5 15H12" stroke="#5C5451" stroke-width="1.5"/>
<path d="M14 15H17M17 15H20M17 15V18M17 15V12" stroke="#5C5451" stroke-width="1.5"/>
</svg>
