<svg width="62" height="69" viewBox="0 0 62 69" fill="none" xmlns="http://www.w3.org/2000/svg">
<path d="M37.9148 36.6384C38.1742 33.9447 37.0617 30.9944 34.797 28.4353C34.7449 28.3754 34.692 28.3164 34.6385 28.2583C33.7217 27.2543 32.6147 26.277 31.1557 25.1817C30.3493 24.5764 29.5086 23.9883 28.6954 23.4194C28.1265 23.0206 27.5377 22.6089 26.968 22.1964C24.5441 20.4403 21.8814 18.236 20.5068 15.1999C19.3882 12.7293 19.2345 9.92963 20.076 7.3515C20.9175 4.77337 22.6933 2.60344 25.054 1.26855C24.9985 1.63706 24.9906 2.01118 25.0307 2.38169L24.971 2.35492L25.098 2.81884C25.1607 3.12547 25.2493 3.42622 25.3629 3.71786C25.822 4.90168 26.7313 6.14452 28.0661 7.41207C29.5073 8.78049 31.5173 10.3123 33.2907 11.6628C33.7868 12.041 34.2515 12.3978 34.6852 12.7321C36.9581 14.4951 38.6656 15.8649 39.9523 17.4413C41.3564 19.1611 42.1326 21.0277 42.3955 23.3144C42.3955 23.3288 42.4044 23.383 42.4057 23.3967C42.5793 25.0114 42.5099 26.6429 42.1999 28.237C41.587 31.4069 40.0772 34.364 37.9148 36.6384Z" fill="url(#paint0_linear_541_854)"/>
<path d="M38.0658 24.718C30.1881 17.1086 26.5234 6.69718 25.5756 3.63709C25.4656 3.35535 25.3799 3.06468 25.3197 2.76827C25.3197 2.76209 25.3197 2.75798 25.3197 2.75798C25.1884 2.12277 25.2091 1.46554 25.3801 0.839844C25.3801 0.839844 17.0906 9.80463 31.024 25.3638H31.0192C32.2545 26.2889 33.4314 27.2744 34.4711 28.4115C34.524 28.4692 34.5754 28.5282 34.6276 28.5865C35.1972 26.8029 36.4682 25.5676 38.0658 24.718Z" fill="url(#paint1_linear_541_854)"/>
<path d="M34.8226 12.5551C32.8606 11.033 30.0571 8.99337 28.2207 7.24955C27.1398 6.22357 26.0932 4.98485 25.5724 3.6377C26.5228 6.69778 30.1875 17.1092 38.0625 24.7186C39.4213 23.996 41.0135 23.552 42.6159 23.2905C42.0415 18.2738 39.1475 15.9103 34.8226 12.5551Z" fill="url(#paint2_linear_541_854)"/>
<path d="M25.3752 0.839844C22.832 2.13275 20.8852 4.35653 19.94 7.04844C18.9949 9.74035 19.1241 12.693 20.3009 15.2921C21.6412 18.2533 24.2023 20.4714 26.8349 22.3785C28.2191 23.3812 29.652 24.3351 31.0212 25.3617H31.026C17.0905 9.80462 25.3752 0.839844 25.3752 0.839844Z" fill="url(#paint3_linear_541_854)"/>
<path d="M37.5971 37.2786C40.0869 34.8767 41.7669 31.6738 42.4195 28.2802C40.8709 27.2175 39.415 26.0258 38.0672 24.7178C36.4695 25.5674 35.1985 26.8027 34.6289 28.5842C36.7372 30.967 38.1811 34.1609 37.5971 37.2786Z" fill="url(#paint4_linear_541_854)"/>
<path d="M42.4167 28.2835C42.7314 26.6674 42.8027 25.0132 42.628 23.376C42.6246 23.3479 42.6205 23.3211 42.6177 23.293C41.018 23.5551 39.4232 23.9985 38.0643 24.7211C39.4121 26.0291 40.8681 27.2208 42.4167 28.2835Z" fill="url(#paint5_linear_541_854)"/>
<path d="M30.6324 26.6455C27.4488 24.2985 24.4237 22.8621 21.0774 18.7568C20.4815 20.6415 20.2147 22.6149 20.2889 24.5902C22.6037 23.9993 26.5306 23.722 30.6324 26.6455Z" fill="url(#paint6_linear_541_854)"/>
<path d="M31.9728 44.6539C31.9307 45.102 31.805 45.5382 31.6023 45.94C33.3262 43.8359 34.8854 41.5293 35.6513 38.9194C36.4171 36.3096 36.3121 33.3455 34.8689 31.039C34.4951 30.4496 34.0754 29.8906 33.6137 29.3672C33.3657 29.0868 33.1171 28.82 32.8677 28.567L32.773 28.4716L32.7641 28.4634C32.1542 27.8598 31.5037 27.2987 30.8172 26.7841L30.6305 26.6468C26.5286 23.7233 22.6011 24.0006 20.287 24.588C32.2769 34.41 32.4937 41.8039 31.9728 44.6539Z" fill="url(#paint7_linear_541_854)"/>
<path d="M20.289 24.5879C20.289 24.5879 25.5671 29.1674 29.3169 37.9016C30.3106 38.8624 31.0806 40.0366 31.4636 41.3329C31.7827 42.4152 32.0812 43.5661 31.9721 44.649C32.4937 41.803 32.2768 34.4091 20.289 24.5879Z" fill="url(#paint8_linear_541_854)"/>
<path d="M20.289 24.5879C20.4221 28.0103 21.6135 31.3436 24.0374 33.7242C25.1725 34.8394 27.6356 36.4631 28.853 37.4864C29.0127 37.6209 29.1675 37.7604 29.3176 37.905C25.5671 29.1674 20.289 24.5879 20.289 24.5879Z" fill="url(#paint9_linear_541_854)"/>
<path d="M0.251431 58.2041L3.3579 51.3444H4.32806L7.44433 58.2041H6.41537L3.64209 51.8932H4.03407L1.26079 58.2041H0.251431ZM1.57438 56.4892L1.83896 55.7052H5.7L5.98419 56.4892H1.57438ZM10.0356 58.2041V51.3444H12.7108C13.3119 51.3444 13.8247 51.4391 14.2494 51.6286C14.674 51.818 15.0007 52.0924 15.2293 52.4517C15.458 52.8111 15.5723 53.239 15.5723 53.7355C15.5723 54.232 15.458 54.6599 15.2293 55.0192C15.0007 55.372 14.674 55.6431 14.2494 55.8326C13.8247 56.0221 13.3119 56.1168 12.7108 56.1168H10.5745L11.0155 55.666V58.2041H10.0356ZM14.6218 58.2041L12.8774 55.715H13.926L15.6899 58.2041H14.6218ZM11.0155 55.764L10.5745 55.2838H12.6814C13.3086 55.2838 13.7823 55.1499 14.1024 54.882C14.429 54.6077 14.5924 54.2255 14.5924 53.7355C14.5924 53.2455 14.429 52.8666 14.1024 52.5987C13.7823 52.3309 13.3086 52.197 12.6814 52.197H10.5745L11.0155 51.707V55.764ZM21.7908 58.2825C21.2681 58.2825 20.7847 58.1976 20.3404 58.0277C19.9027 57.8513 19.5205 57.6063 19.1939 57.2927C18.8738 56.9726 18.6222 56.6002 18.4393 56.1756C18.2564 55.7509 18.1649 55.2838 18.1649 54.7742C18.1649 54.2647 18.2564 53.7976 18.4393 53.3729C18.6222 52.9483 18.877 52.5791 19.2037 52.2655C19.5303 51.9454 19.9125 51.7004 20.3502 51.5306C20.7945 51.3542 21.2779 51.266 21.8006 51.266C22.3298 51.266 22.8165 51.3575 23.2607 51.5404C23.7115 51.7168 24.0937 51.9814 24.4073 52.3341L23.7703 52.9515C23.509 52.6771 23.215 52.4746 22.8883 52.3439C22.5617 52.2068 22.2122 52.1382 21.8398 52.1382C21.4543 52.1382 21.095 52.2035 20.7618 52.3341C20.4352 52.4648 20.151 52.6477 19.9093 52.8829C19.6675 53.1181 19.4781 53.399 19.3409 53.7257C19.2102 54.0458 19.1449 54.3953 19.1449 54.7742C19.1449 55.1532 19.2102 55.5059 19.3409 55.8326C19.4781 56.1527 19.6675 56.4304 19.9093 56.6656C20.151 56.9008 20.4352 57.0837 20.7618 57.2143C21.095 57.345 21.4543 57.4103 21.8398 57.4103C22.2122 57.4103 22.5617 57.345 22.8883 57.2143C23.215 57.0771 23.509 56.8681 23.7703 56.5872L24.4073 57.2045C24.0937 57.5573 23.7115 57.8252 23.2607 58.0081C22.8165 58.191 22.3265 58.2825 21.7908 58.2825ZM32.2926 51.3444H33.2725V58.2041H32.2926V51.3444ZM28.3531 58.2041H27.3732V51.3444H28.3531V58.2041ZM32.3808 55.1466H28.2551V54.2941H32.3808V55.1466ZM37.7855 54.3039H41.3133V55.1368H37.7855V54.3039ZM37.8737 57.3515H41.8719V58.2041H36.8937V51.3444H41.7347V52.197H37.8737V57.3515ZM43.9879 58.2041L47.0943 51.3444H48.0645L51.1808 58.2041H50.1518L47.3785 51.8932H47.7705L44.9972 58.2041H43.9879ZM45.3108 56.4892L45.5754 55.7052H49.4364L49.7206 56.4892H45.3108ZM53.772 58.2041V51.3444H54.5755L59.1128 56.9792H58.6914V51.3444H59.6713V58.2041H58.8678L54.3306 52.5693H54.7519V58.2041H53.772Z" fill="#00386C"/>
<path d="M4.27248 66.1826V61.6095H4.671L6.76158 65.1765H6.55252L8.6235 61.6095H9.02201V66.1826H8.55817V62.3346H8.66923L6.76158 65.6012H6.53292L4.6122 62.3346H4.73633V66.1826H4.27248ZM10.4141 66.1826V62.7528H10.8779V66.1826H10.4141ZM10.6493 61.9949C10.5534 61.9949 10.4729 61.9623 10.4075 61.8969C10.3422 61.8316 10.3095 61.7532 10.3095 61.6617C10.3095 61.5703 10.3422 61.4941 10.4075 61.4331C10.4729 61.3678 10.5534 61.3351 10.6493 61.3351C10.7451 61.3351 10.8256 61.3656 10.891 61.4265C10.9563 61.4875 10.989 61.5637 10.989 61.6552C10.989 61.751 10.9563 61.8316 10.891 61.8969C10.83 61.9623 10.7494 61.9949 10.6493 61.9949ZM13.9194 62.7201C14.1982 62.7201 14.4421 62.7745 14.6511 62.8834C14.8645 62.988 15.03 63.1491 15.1476 63.3669C15.2696 63.5846 15.3306 63.859 15.3306 64.19V66.1826H14.8667V64.2358C14.8667 63.8743 14.7752 63.6021 14.5923 63.4191C14.4137 63.2319 14.1611 63.1382 13.8345 63.1382C13.5906 63.1382 13.3772 63.1883 13.1942 63.2885C13.0157 63.3843 12.8763 63.5258 12.7761 63.7131C12.6803 63.896 12.6324 64.1182 12.6324 64.3795V66.1826H12.1686V62.7528H12.6128V63.6935L12.5409 63.5171C12.6498 63.2689 12.824 63.0751 13.0636 62.9357C13.3031 62.792 13.5884 62.7201 13.9194 62.7201ZM18.0403 66.2153C17.6832 66.2153 17.3696 66.1412 17.0996 65.9932C16.8295 65.8407 16.6183 65.6338 16.4659 65.3725C16.3134 65.1068 16.2372 64.8041 16.2372 64.4644C16.2372 64.1247 16.3091 63.8242 16.4528 63.5629C16.6009 63.3015 16.8012 63.0968 17.0539 62.9488C17.3108 62.7963 17.5983 62.7201 17.9162 62.7201C18.2385 62.7201 18.5238 62.7941 18.772 62.9422C19.0247 63.0859 19.2228 63.2906 19.3666 63.5563C19.5103 63.8176 19.5821 64.1203 19.5821 64.4644C19.5821 64.4862 19.58 64.5102 19.5756 64.5363C19.5756 64.5581 19.5756 64.582 19.5756 64.6081H16.59V64.2619H19.3274L19.1444 64.3991C19.1444 64.1508 19.09 63.9309 18.9811 63.7393C18.8766 63.5433 18.7328 63.3908 18.5499 63.2819C18.367 63.1731 18.1558 63.1186 17.9162 63.1186C17.681 63.1186 17.4698 63.1731 17.2825 63.2819C17.0952 63.3908 16.9493 63.5433 16.8448 63.7393C16.7403 63.9352 16.688 64.1595 16.688 64.4122V64.484C16.688 64.7453 16.7446 64.9762 16.8579 65.1765C16.9755 65.3725 17.1366 65.5271 17.3413 65.6404C17.5504 65.7493 17.7877 65.8037 18.0534 65.8037C18.2625 65.8037 18.4563 65.7667 18.6349 65.6926C18.8178 65.6186 18.9746 65.5054 19.1052 65.3529L19.3666 65.6534C19.2141 65.8364 19.0225 65.9757 18.7916 66.0716C18.5652 66.1674 18.3147 66.2153 18.0403 66.2153ZM21.4474 66.2153C21.1643 66.2153 20.8965 66.1761 20.6439 66.0977C20.3913 66.0149 20.1931 65.9126 20.0494 65.7906L20.2584 65.4248C20.3978 65.5293 20.5764 65.6208 20.7941 65.6992C21.0119 65.7732 21.2406 65.8102 21.4801 65.8102C21.8068 65.8102 22.0419 65.7601 22.1857 65.66C22.3294 65.5554 22.4013 65.4182 22.4013 65.2484C22.4013 65.1221 22.3599 65.0241 22.2771 64.9544C22.1987 64.8804 22.0942 64.8259 21.9635 64.7911C21.8329 64.7519 21.687 64.7192 21.5258 64.6931C21.3647 64.6669 21.2035 64.6365 21.0424 64.6016C20.8856 64.5668 20.7419 64.5167 20.6112 64.4514C20.4805 64.3817 20.3738 64.288 20.2911 64.1704C20.2127 64.0528 20.1735 63.896 20.1735 63.7001C20.1735 63.5128 20.2258 63.3451 20.3303 63.197C20.4348 63.0489 20.5872 62.9335 20.7876 62.8508C20.9923 62.7636 21.2406 62.7201 21.5324 62.7201C21.7545 62.7201 21.9766 62.7506 22.1987 62.8116C22.4209 62.8682 22.6038 62.9444 22.7475 63.0402L22.545 63.4126C22.3926 63.3081 22.2292 63.234 22.055 63.1905C21.8808 63.1426 21.7066 63.1186 21.5324 63.1186C21.2231 63.1186 20.9945 63.1731 20.8464 63.2819C20.7027 63.3865 20.6308 63.5215 20.6308 63.687C20.6308 63.8176 20.67 63.92 20.7484 63.994C20.8312 64.0681 20.9379 64.1269 21.0685 64.1704C21.2035 64.2096 21.3494 64.2423 21.5062 64.2684C21.6674 64.2946 21.8264 64.3272 21.9831 64.3664C22.1443 64.4013 22.2902 64.4514 22.4209 64.5167C22.5559 64.5777 22.6626 64.6669 22.741 64.7845C22.8237 64.8978 22.8651 65.048 22.8651 65.2353C22.8651 65.4357 22.8085 65.6099 22.6953 65.758C22.5864 65.9017 22.4252 66.0149 22.2118 66.0977C22.0027 66.1761 21.748 66.2153 21.4474 66.2153ZM26.4126 66.1826V62.0276H24.8054V61.6095H28.5031V62.0276H26.896V66.1826H26.4126ZM30.2183 66.2153C29.8873 66.2153 29.5889 66.1412 29.3232 65.9932C29.0619 65.8407 28.855 65.6338 28.7026 65.3725C28.5502 65.1068 28.4739 64.8041 28.4739 64.4644C28.4739 64.1203 28.5502 63.8176 28.7026 63.5563C28.855 63.295 29.0619 63.0903 29.3232 62.9422C29.5846 62.7941 29.8829 62.7201 30.2183 62.7201C30.558 62.7201 30.8585 62.7941 31.1198 62.9422C31.3855 63.0903 31.5924 63.295 31.7405 63.5563C31.8929 63.8176 31.9691 64.1203 31.9691 64.4644C31.9691 64.8041 31.8929 65.1068 31.7405 65.3725C31.5924 65.6338 31.3855 65.8407 31.1198 65.9932C30.8542 66.1412 30.5536 66.2153 30.2183 66.2153ZM30.2183 65.8037C30.4665 65.8037 30.6865 65.7493 30.8781 65.6404C31.0698 65.5271 31.22 65.3703 31.3289 65.17C31.4421 64.9653 31.4988 64.7301 31.4988 64.4644C31.4988 64.1944 31.4421 63.9592 31.3289 63.7589C31.22 63.5585 31.0698 63.4039 30.8781 63.295C30.6865 63.1818 30.4687 63.1251 30.2248 63.1251C29.9809 63.1251 29.7631 63.1818 29.5715 63.295C29.3799 63.4039 29.2274 63.5585 29.1142 63.7589C29.0009 63.9592 28.9443 64.1944 28.9443 64.4644C28.9443 64.7301 29.0009 64.9653 29.1142 65.17C29.2274 65.3703 29.3799 65.5271 29.5715 65.6404C29.7631 65.7493 29.9787 65.8037 30.2183 65.8037ZM34.7239 66.1826V61.6095H36.6969C37.2065 61.6095 37.6007 61.7118 37.8794 61.9165C38.1625 62.1212 38.3041 62.4109 38.3041 62.7854C38.3041 63.0337 38.2453 63.2427 38.1277 63.4126C38.0144 63.5825 37.8576 63.7109 37.6573 63.798C37.4613 63.8852 37.2457 63.9287 37.0105 63.9287L37.1216 63.7719C37.4134 63.7719 37.6638 63.8176 37.8729 63.9091C38.0863 63.9962 38.2518 64.1291 38.3694 64.3076C38.487 64.4818 38.5458 64.6996 38.5458 64.9609C38.5458 65.3486 38.4021 65.6491 38.1146 65.8625C37.8315 66.0759 37.4025 66.1826 36.8276 66.1826H34.7239ZM35.2074 65.7841H36.8211C37.2218 65.7841 37.5288 65.7166 37.7422 65.5816C37.9556 65.4422 38.0623 65.2223 38.0623 64.9217C38.0623 64.6256 37.9556 64.41 37.7422 64.275C37.5288 64.1356 37.2218 64.0659 36.8211 64.0659H35.1551V63.6674H36.6643C37.0301 63.6674 37.3132 63.5977 37.5136 63.4583C37.7183 63.319 37.8206 63.1121 37.8206 62.8377C37.8206 62.5589 37.7183 62.3521 37.5136 62.217C37.3132 62.0777 37.0301 62.008 36.6643 62.008H35.2074V65.7841ZM41.0081 66.2153C40.651 66.2153 40.3374 66.1412 40.0674 65.9932C39.7973 65.8407 39.5861 65.6338 39.4337 65.3725C39.2812 65.1068 39.205 64.8041 39.205 64.4644C39.205 64.1247 39.2769 63.8242 39.4206 63.5629C39.5687 63.3015 39.769 63.0968 40.0216 62.9488C40.2786 62.7963 40.5661 62.7201 40.884 62.7201C41.2063 62.7201 41.4916 62.7941 41.7398 62.9422C41.9925 63.0859 42.1906 63.2906 42.3343 63.5563C42.4781 63.8176 42.5499 64.1203 42.5499 64.4644C42.5499 64.4862 42.5478 64.5102 42.5434 64.5363C42.5434 64.5581 42.5434 64.582 42.5434 64.6081H39.5578V64.2619H42.2952L42.1122 64.3991C42.1122 64.1508 42.0578 63.9309 41.9489 63.7393C41.8444 63.5433 41.7006 63.3908 41.5177 63.2819C41.3348 63.1731 41.1236 63.1186 40.884 63.1186C40.6488 63.1186 40.4376 63.1731 40.2503 63.2819C40.063 63.3908 39.9171 63.5433 39.8126 63.7393C39.7081 63.9352 39.6558 64.1595 39.6558 64.4122V64.484C39.6558 64.7453 39.7124 64.9762 39.8257 65.1765C39.9432 65.3725 40.1044 65.5271 40.3091 65.6404C40.5182 65.7493 40.7555 65.8037 41.0212 65.8037C41.2303 65.8037 41.4241 65.7667 41.6026 65.6926C41.7856 65.6186 41.9424 65.5054 42.073 65.3529L42.3343 65.6534C42.1819 65.8364 41.9903 65.9757 41.7594 66.0716C41.533 66.1674 41.2825 66.2153 41.0081 66.2153ZM45.2449 62.7201C45.5237 62.7201 45.7676 62.7745 45.9766 62.8834C46.19 62.988 46.3555 63.1491 46.4731 63.3669C46.5951 63.5846 46.6561 63.859 46.6561 64.19V66.1826H46.1922V64.2358C46.1922 63.8743 46.1008 63.6021 45.9178 63.4191C45.7393 63.2319 45.4867 63.1382 45.16 63.1382C44.9161 63.1382 44.7027 63.1883 44.5198 63.2885C44.3412 63.3843 44.2018 63.5258 44.1016 63.7131C44.0058 63.896 43.9579 64.1182 43.9579 64.3795V66.1826H43.4941V61.3351H43.9579V63.6935L43.8665 63.5171C43.9753 63.2689 44.1496 63.0751 44.3891 62.9357C44.6286 62.792 44.9139 62.7201 45.2449 62.7201ZM49.3071 66.2153C48.9761 66.2153 48.6777 66.1412 48.412 65.9932C48.1507 65.8407 47.9438 65.6338 47.7914 65.3725C47.639 65.1068 47.5627 64.8041 47.5627 64.4644C47.5627 64.1203 47.639 63.8176 47.7914 63.5563C47.9438 63.295 48.1507 63.0903 48.412 62.9422C48.6734 62.7941 48.9717 62.7201 49.3071 62.7201C49.6468 62.7201 49.9473 62.7941 50.2086 62.9422C50.4743 63.0903 50.6812 63.295 50.8293 63.5563C50.9817 63.8176 51.0579 64.1203 51.0579 64.4644C51.0579 64.8041 50.9817 65.1068 50.8293 65.3725C50.6812 65.6338 50.4743 65.8407 50.2086 65.9932C49.9429 66.1412 49.6424 66.2153 49.3071 66.2153ZM49.3071 65.8037C49.5553 65.8037 49.7753 65.7493 49.9669 65.6404C50.1585 65.5271 50.3088 65.3703 50.4177 65.17C50.5309 64.9653 50.5875 64.7301 50.5875 64.4644C50.5875 64.1944 50.5309 63.9592 50.4177 63.7589C50.3088 63.5585 50.1585 63.4039 49.9669 63.295C49.7753 63.1818 49.5575 63.1251 49.3136 63.1251C49.0697 63.1251 48.8519 63.1818 48.6603 63.295C48.4687 63.4039 48.3162 63.5585 48.203 63.7589C48.0897 63.9592 48.0331 64.1944 48.0331 64.4644C48.0331 64.7301 48.0897 64.9653 48.203 65.17C48.3162 65.3703 48.4687 65.5271 48.6603 65.6404C48.8519 65.7493 49.0675 65.8037 49.3071 65.8037ZM52.0049 66.1826V61.3351H52.4688V66.1826H52.0049ZM55.1248 66.2153C54.7982 66.2153 54.5042 66.1412 54.2428 65.9932C53.9859 65.8451 53.7833 65.6404 53.6353 65.3791C53.4872 65.1134 53.4131 64.8085 53.4131 64.4644C53.4131 64.116 53.4872 63.8111 53.6353 63.5498C53.7833 63.2885 53.9859 63.0859 54.2428 62.9422C54.5042 62.7941 54.7982 62.7201 55.1248 62.7201C55.4253 62.7201 55.6932 62.7876 55.9284 62.9226C56.1679 63.0576 56.3574 63.2558 56.4967 63.5171C56.6405 63.7741 56.7123 64.0899 56.7123 64.4644C56.7123 64.8346 56.6427 65.1504 56.5033 65.4117C56.3639 65.673 56.1744 65.8734 55.9349 66.0128C55.6997 66.1478 55.4297 66.2153 55.1248 66.2153ZM55.1575 65.8037C55.4014 65.8037 55.6191 65.7493 55.8108 65.6404C56.0068 65.5271 56.1592 65.3703 56.2681 65.17C56.3813 64.9653 56.4379 64.7301 56.4379 64.4644C56.4379 64.1944 56.3813 63.9592 56.2681 63.7589C56.1592 63.5585 56.0068 63.4039 55.8108 63.295C55.6191 63.1818 55.4014 63.1251 55.1575 63.1251C54.9179 63.1251 54.7023 63.1818 54.5107 63.295C54.3191 63.4039 54.1666 63.5585 54.0534 63.7589C53.9401 63.9592 53.8835 64.1944 53.8835 64.4644C53.8835 64.7301 53.9401 64.9653 54.0534 65.17C54.1666 65.3703 54.3191 65.5271 54.5107 65.6404C54.7023 65.7493 54.9179 65.8037 55.1575 65.8037ZM56.451 66.1826V65.1504L56.4967 64.4579L56.4314 63.7654V61.3351H56.8953V66.1826H56.451Z" fill="#FBB040"/>
<defs>
<linearGradient id="paint0_linear_541_854" x1="31.0232" y1="36.6384" x2="31.0232" y2="1.26993" gradientUnits="userSpaceOnUse">
<stop stop-color="#00ABC5"/>
<stop offset="0.44" stop-color="#00929E"/>
<stop offset="1" stop-color="#007B8D"/>
</linearGradient>
<linearGradient id="paint1_linear_541_854" x1="19.3237" y1="14.7122" x2="42.7235" y2="14.7122" gradientUnits="userSpaceOnUse">
<stop stop-color="#007B8D"/>
<stop offset="0.56" stop-color="#00929E"/>
<stop offset="1" stop-color="#00ABC5"/>
</linearGradient>
<linearGradient id="paint2_linear_541_854" x1="30.8093" y1="15.3613" x2="37.0949" y2="11.7323" gradientUnits="userSpaceOnUse">
<stop stop-color="#007B8D"/>
<stop offset="0.21" stop-color="#008393"/>
<stop offset="0.42" stop-color="#00929E"/>
<stop offset="1" stop-color="#00AAB5"/>
</linearGradient>
<linearGradient id="paint3_linear_541_854" x1="21.2747" y1="17.0908" x2="31.3869" y2="11.2527" gradientUnits="userSpaceOnUse">
<stop stop-color="#007B8D"/>
<stop offset="0.39" stop-color="#00929E"/>
<stop offset="1" stop-color="#6AC9C8"/>
</linearGradient>
<linearGradient id="paint4_linear_541_854" x1="38.5242" y1="37.2786" x2="38.5242" y2="24.7178" gradientUnits="userSpaceOnUse">
<stop stop-color="#B1DED3"/>
<stop offset="0.44" stop-color="#00B3B5"/>
<stop offset="1" stop-color="#007B8D"/>
</linearGradient>
<linearGradient id="paint5_linear_541_854" x1="40.3929" y1="28.2808" x2="40.3929" y2="23.2902" gradientUnits="userSpaceOnUse">
<stop stop-color="#00ABC5"/>
<stop offset="0.44" stop-color="#00929E"/>
<stop offset="1" stop-color="#007B8D"/>
</linearGradient>
<linearGradient id="paint6_linear_541_854" x1="20.2766" y1="22.7015" x2="30.6324" y2="22.7015" gradientUnits="userSpaceOnUse">
<stop stop-color="#FFCB05"/>
<stop offset="0.61" stop-color="#F37021"/>
<stop offset="1" stop-color="#F04E23"/>
</linearGradient>
<linearGradient id="paint7_linear_541_854" x1="20.289" y1="35.0743" x2="36.1255" y2="35.0743" gradientUnits="userSpaceOnUse">
<stop stop-color="#F04E23"/>
<stop offset="0.39" stop-color="#F37021"/>
<stop offset="1" stop-color="#FBB040"/>
</linearGradient>
<linearGradient id="paint8_linear_541_854" x1="20.289" y1="34.6205" x2="32.121" y2="34.6205" gradientUnits="userSpaceOnUse">
<stop stop-color="#F04E23"/>
<stop offset="0.39" stop-color="#F37021"/>
<stop offset="1" stop-color="#FFD400"/>
</linearGradient>
<linearGradient id="paint9_linear_541_854" x1="24.8033" y1="37.905" x2="24.8033" y2="24.5879" gradientUnits="userSpaceOnUse">
<stop stop-color="#F04E23"/>
<stop offset="0.39" stop-color="#F37021"/>
<stop offset="1" stop-color="#FBB040"/>
</linearGradient>
</defs>
</svg>
