<svg width="800" height="604" viewBox="0 0 800 604" fill="none" xmlns="http://www.w3.org/2000/svg">
<path d="M800 530.968H0V531.368H800V530.968Z" fill="#EBEBEB"/>
<path d="M136.928 546.2H83.936V546.6H136.928V546.2Z" fill="#EBEBEB"/>
<path d="M287.728 541.864H245.504V542.264H287.728V541.864Z" fill="#EBEBEB"/>
<path d="M217.424 555.641H143.952V556.041H217.424V555.641Z" fill="#EBEBEB"/>
<path d="M719.84 558.376H685.28V558.776H719.84V558.376Z" fill="#EBEBEB"/>
<path d="M677.504 558.376H626.352V558.776H677.504V558.376Z" fill="#EBEBEB"/>
<path d="M531.728 551.625H443.536V552.025H531.728V551.625Z" fill="#EBEBEB"/>
<path d="M379.2 459.608H70.256C67.8357 459.604 65.5161 458.64 63.8062 456.927C62.0963 455.214 61.136 452.893 61.136 450.472V16.1844C61.1571 13.7781 62.1267 11.4772 63.8343 9.78157C65.5419 8.08595 67.8495 7.13254 70.256 7.12842H379.2C381.623 7.12842 383.947 8.09096 385.66 9.80429C387.373 11.5176 388.336 13.8414 388.336 16.2644V450.472C388.336 452.895 387.373 455.219 385.66 456.933C383.947 458.646 381.623 459.608 379.2 459.608V459.608ZM70.256 7.44842C67.9418 7.45266 65.7239 8.37492 64.089 10.0128C62.4542 11.6506 61.536 13.8703 61.536 16.1844V450.472C61.536 452.787 62.4542 455.006 64.089 456.644C65.7239 458.282 67.9418 459.204 70.256 459.208H379.2C381.516 459.204 383.735 458.282 385.373 456.645C387.01 455.008 387.932 452.788 387.936 450.472V16.1844C387.932 13.8688 387.01 11.6492 385.373 10.0118C383.735 8.3744 381.516 7.45265 379.2 7.44842H70.256Z" fill="#EBEBEB"/>
<path d="M725.296 459.608H416.336C413.914 459.604 411.593 458.64 409.881 456.928C408.168 455.215 407.204 452.894 407.2 450.472V16.1844C407.225 13.7766 408.198 11.4757 409.909 9.78057C411.619 8.08539 413.928 7.1325 416.336 7.12842H725.296C727.7 7.13675 730.003 8.09202 731.707 9.78718C733.411 11.4823 734.379 13.7808 734.4 16.1844V450.472C734.4 452.89 733.442 455.209 731.735 456.921C730.029 458.634 727.713 459.6 725.296 459.608V459.608ZM416.336 7.44842C414.02 7.45265 411.801 8.3744 410.163 10.0118C408.526 11.6492 407.604 13.8688 407.6 16.1844V450.472C407.604 452.788 408.526 455.008 410.163 456.645C411.801 458.282 414.02 459.204 416.336 459.208H725.296C727.612 459.204 729.831 458.282 731.469 456.645C733.106 455.008 734.028 452.788 734.032 450.472V16.1844C734.028 13.8688 733.106 11.6492 731.469 10.0118C729.831 8.3744 727.612 7.45265 725.296 7.44842H416.336Z" fill="#EBEBEB"/>
<path d="M112.592 270.889L545.488 270.889V29.8807L112.592 29.8807L112.592 270.889Z" fill="#E0E0E0"/>
<path d="M88.8321 270.889L543.312 270.889V29.8807L88.8321 29.8807L88.8321 270.889Z" fill="#F5F5F5"/>
<path d="M535.872 263.449V37.3047L96.2401 37.3047V263.449H535.872Z" fill="white"/>
<path d="M357.872 263.465L274.864 37.3047H411.856L494.864 263.465H357.872Z" fill="#F5F5F5"/>
<path d="M226.016 263.465L143.008 37.3047H246.352L329.344 263.465H226.016Z" fill="#F5F5F5"/>
<path d="M692 523.497H716.64V357.689H692V523.497Z" fill="#F0F0F0"/>
<path d="M441.312 530.968H711.888V523.496H441.312V530.968Z" fill="#F0F0F0"/>
<path d="M692 357.672H436.592V523.48H692V357.672Z" fill="#F5F5F5"/>
<path d="M694.56 357.672H719.744V351.144H694.56V357.672Z" fill="#F0F0F0"/>
<path d="M694.544 351.16H433.488V357.688H694.544V351.16Z" fill="#FAFAFA"/>
<path d="M683.312 436.264H445.264V371.192H683.312V436.264ZM447.28 434.328H681.296V373.208H447.28V434.328Z" fill="#E0E0E0"/>
<path d="M683.312 509.976H445.264V445.8H683.312V509.976ZM447.28 507.928H681.296V447.816H447.28V507.928Z" fill="#E0E0E0"/>
<path d="M492.48 384.169H636.096C636.8 384.169 637.476 383.889 637.974 383.391C638.472 382.893 638.752 382.217 638.752 381.513V381.513C638.748 380.811 638.466 380.139 637.968 379.645C637.471 379.15 636.798 378.873 636.096 378.873H492.48C491.78 378.873 491.108 379.151 490.613 379.646C490.118 380.141 489.84 380.812 489.84 381.513C489.838 381.861 489.905 382.206 490.036 382.528C490.168 382.85 490.362 383.143 490.607 383.39C490.853 383.637 491.145 383.832 491.466 383.966C491.787 384.1 492.132 384.169 492.48 384.169V384.169Z" fill="#E0E0E0"/>
<path d="M492.48 458.792H636.096C636.799 458.788 637.472 458.507 637.969 458.01C638.467 457.513 638.748 456.84 638.752 456.136V456.136C638.748 455.433 638.467 454.76 637.969 454.263C637.472 453.766 636.799 453.485 636.096 453.48H492.48C491.778 453.485 491.107 453.766 490.612 454.264C490.118 454.762 489.84 455.435 489.84 456.136V456.136C489.84 456.838 490.118 457.511 490.612 458.009C491.107 458.507 491.778 458.788 492.48 458.792Z" fill="#E0E0E0"/>
<path d="M226.576 332.12H185.216C177.931 332.22 170.885 334.738 165.188 339.28C159.49 343.822 155.464 350.128 153.744 357.208L142.816 402.824L120.416 402.745C115.214 402.737 110.172 404.541 106.155 407.846C102.137 411.151 99.3957 415.751 98.3999 420.856L95.4239 436.489C93.1618 436.826 91.0514 437.83 89.3617 439.372C87.672 440.913 86.4794 442.923 85.9359 445.145H196.8C204.076 445.043 211.113 442.527 216.803 437.991C222.494 433.456 226.517 427.159 228.24 420.088L243.92 354.584C244.632 351.932 244.722 349.15 244.182 346.457C243.643 343.764 242.489 341.232 240.811 339.058C239.132 336.884 236.974 335.126 234.505 333.923C232.036 332.72 229.323 332.103 226.576 332.12V332.12ZM117.952 436.36H101.36L104.144 421.96C104.865 418.201 106.872 414.81 109.821 412.369C112.77 409.928 116.476 408.59 120.304 408.584V408.584H141.36L138.704 419.688C137.581 424.374 134.933 428.554 131.177 431.571C127.421 434.589 122.769 436.273 117.952 436.36V436.36Z" fill="#E6E6E6"/>
<path d="M194.08 445.145H198.816L217.456 530.969H212.72L194.08 445.145Z" fill="#E0E0E0"/>
<path d="M176.304 445.145H181.04L199.68 530.969H194.944L176.304 445.145Z" fill="#E0E0E0"/>
<path d="M106.528 445.145H101.792L83.152 530.969H87.888L106.528 445.145Z" fill="#E0E0E0"/>
<path d="M124.304 445.145H119.568L100.928 530.969H105.664L124.304 445.145Z" fill="#E0E0E0"/>
<path d="M380.128 332.121H338.784C331.499 332.22 324.453 334.738 318.756 339.28C313.058 343.822 309.033 350.129 307.312 357.209L296.384 402.825L273.984 402.745C268.796 402.745 263.771 404.554 259.773 407.86C255.776 411.165 253.055 415.761 252.08 420.856L249.088 436.489C246.828 436.833 244.721 437.838 243.032 439.379C241.344 440.919 240.149 442.926 239.6 445.145H350.4C357.678 445.044 364.717 442.528 370.411 437.993C376.104 433.458 380.13 427.16 381.856 420.089L397.536 354.585C398.249 351.926 398.338 349.139 397.796 346.441C397.253 343.743 396.093 341.207 394.407 339.032C392.722 336.857 390.555 335.101 388.078 333.902C385.601 332.703 382.88 332.093 380.128 332.121ZM271.504 436.361H254.912L257.696 421.96C258.42 418.2 260.431 414.808 263.382 412.368C266.334 409.927 270.042 408.59 273.872 408.585V408.585H294.944L292.272 419.689C291.153 424.379 288.505 428.564 284.744 431.583C280.984 434.601 276.326 436.282 271.504 436.361V436.361Z" fill="#E6E6E6"/>
<path d="M347.632 445.145H352.384L371.024 530.969H366.288L347.632 445.145Z" fill="#E0E0E0"/>
<path d="M329.856 445.145H334.592L353.248 530.969H348.512L329.856 445.145Z" fill="#E0E0E0"/>
<path d="M260.096 445.145H255.36L236.72 530.969H241.456L260.096 445.145Z" fill="#E0E0E0"/>
<path d="M277.872 445.145H273.136L254.496 530.969H259.232L277.872 445.145Z" fill="#E0E0E0"/>
<path d="M576.24 351.096H653.52L659.792 282.2H582.512L576.24 351.096Z" fill="#E6E6E6"/>
<path d="M573.616 351.096H650.896L657.152 282.2H579.888L573.616 351.096Z" fill="#F0F0F0"/>
<path d="M643.952 343.464L648.832 289.816H586.816L581.936 343.464H643.952Z" fill="white"/>
<path d="M558.352 300.776L553.776 351.096H590.8L595.392 300.776H558.352Z" fill="#E6E6E6"/>
<path d="M556.432 300.776L551.856 351.096H588.896L593.472 300.776H556.432Z" fill="#F0F0F0"/>
<path d="M561.504 306.344L557.936 345.512H583.824L587.392 306.344H561.504Z" fill="white"/>
<path d="M400 603.224C571.332 603.224 710.224 595.115 710.224 585.112C710.224 575.109 571.332 567 400 567C228.668 567 89.776 575.109 89.776 585.112C89.776 595.115 228.668 603.224 400 603.224Z" fill="#F5F5F5"/>
<path d="M652.176 419.017H230.688C228.208 419.035 225.751 418.542 223.47 417.57C221.189 416.598 219.132 415.167 217.427 413.367C215.722 411.566 214.406 409.434 213.561 407.103C212.715 404.772 212.358 402.292 212.512 399.817L228.24 78.2167C228.531 73.0705 230.764 68.2266 234.488 64.663C238.212 61.0993 243.15 59.0814 248.304 59.0167H669.792C672.272 58.9964 674.73 59.4872 677.012 60.4583C679.295 61.4295 681.353 62.8603 683.058 64.6615C684.763 66.4628 686.079 68.596 686.924 70.9281C687.768 73.2602 688.124 75.7412 687.968 78.2167L672.24 399.817C671.945 404.962 669.71 409.803 665.987 413.366C662.264 416.929 657.329 418.948 652.176 419.017V419.017Z" fill="#407BFF"/>
<path opacity="0.7" d="M652.176 419.017H230.688C228.208 419.035 225.751 418.542 223.47 417.57C221.189 416.598 219.132 415.167 217.427 413.367C215.722 411.566 214.406 409.434 213.561 407.103C212.715 404.772 212.358 402.292 212.512 399.817L228.24 78.2167C228.531 73.0705 230.764 68.2266 234.488 64.663C238.212 61.0993 243.15 59.0814 248.304 59.0167H669.792C672.272 58.9964 674.73 59.4872 677.012 60.4583C679.295 61.4295 681.353 62.8603 683.058 64.6615C684.763 66.4628 686.079 68.596 686.924 70.9281C687.768 73.2602 688.124 75.7412 687.968 78.2167L672.24 399.817C671.945 404.962 669.71 409.803 665.987 413.366C662.264 416.929 657.329 418.948 652.176 419.017V419.017Z" fill="white"/>
<path d="M686.112 62.4888C683.868 60.0019 681.066 58.0827 677.936 56.8888L678.512 55.3848C681.865 56.6857 684.871 58.7447 687.296 61.4008L686.112 62.4888Z" fill="#407BFF"/>
<path d="M670 53.8325H636.304V55.4325H670V53.8325Z" fill="#407BFF"/>
<path d="M669.792 59.1127H248.304C243.15 59.1774 238.212 61.1953 234.488 64.759C230.764 68.3226 228.531 73.1665 228.24 78.3127H688C688.156 75.8345 687.8 73.3507 686.953 71.0164C686.106 68.6822 684.788 66.5475 683.079 64.7457C681.37 62.944 679.309 61.5139 677.022 60.5447C674.736 59.5755 672.275 59.088 669.792 59.1127V59.1127Z" fill="#407BFF"/>
<path d="M225.376 397.321L240 99.9285C240.138 97.5311 241.181 95.2755 242.919 93.618C244.656 91.9606 246.959 91.025 249.36 91.0005H665.6C666.756 90.9874 667.903 91.2127 668.968 91.6624C670.034 92.1121 670.995 92.7766 671.792 93.6143C672.589 94.4521 673.205 95.4451 673.602 96.5315C673.998 97.6179 674.166 98.7743 674.096 99.9285L659.552 397.337C659.414 399.738 658.369 401.998 656.628 403.658C654.888 405.319 652.581 406.256 650.176 406.281H233.872C232.713 406.292 231.565 406.064 230.498 405.611C229.432 405.159 228.47 404.491 227.673 403.651C226.875 402.81 226.26 401.814 225.865 400.725C225.47 399.636 225.303 398.477 225.376 397.321V397.321Z" fill="white"/>
<path opacity="0.3" d="M284.448 192.953H265.248C264.832 192.958 264.42 192.877 264.036 192.716C263.653 192.556 263.307 192.318 263.019 192.018C262.731 191.718 262.507 191.362 262.362 190.973C262.217 190.583 262.154 190.168 262.176 189.753L263.776 156.153C263.832 155.289 264.214 154.48 264.843 153.886C265.472 153.292 266.303 152.959 267.168 152.953H286.368C286.785 152.945 287.199 153.024 287.584 153.184C287.97 153.344 288.318 153.581 288.608 153.881C288.897 154.181 289.122 154.538 289.268 154.929C289.414 155.319 289.478 155.736 289.456 156.153L287.856 189.753C287.799 190.619 287.416 191.431 286.783 192.025C286.15 192.619 285.316 192.95 284.448 192.953V192.953Z" fill="#407BFF"/>
<path opacity="0.3" d="M322.88 192.953H303.68C303.264 192.955 302.852 192.873 302.469 192.712C302.086 192.551 301.739 192.313 301.451 192.014C301.162 191.715 300.937 191.36 300.789 190.971C300.642 190.583 300.574 190.168 300.592 189.753L302.528 150.073C302.592 149.209 302.978 148.402 303.609 147.809C304.24 147.216 305.07 146.882 305.936 146.873H325.136C325.552 146.87 325.964 146.952 326.347 147.113C326.73 147.275 327.076 147.512 327.365 147.811C327.654 148.111 327.879 148.465 328.026 148.854C328.174 149.243 328.241 149.657 328.224 150.073L326.288 189.753C326.224 190.616 325.838 191.424 325.207 192.016C324.576 192.609 323.745 192.943 322.88 192.953V192.953Z" fill="#407BFF"/>
<path opacity="0.3" d="M361.312 192.953H342.112C341.696 192.955 341.284 192.873 340.901 192.712C340.518 192.55 340.171 192.313 339.883 192.014C339.594 191.715 339.369 191.36 339.221 190.971C339.074 190.583 339.007 190.168 339.024 189.753L341.168 145.929C341.232 145.065 341.618 144.257 342.249 143.665C342.88 143.072 343.71 142.738 344.576 142.729H363.776C364.192 142.726 364.604 142.808 364.987 142.969C365.37 143.131 365.716 143.368 366.005 143.667C366.294 143.967 366.519 144.321 366.666 144.71C366.814 145.099 366.881 145.513 366.864 145.929L364.8 189.705C364.747 190.59 364.355 191.421 363.705 192.026C363.056 192.631 362.199 192.962 361.312 192.953V192.953Z" fill="#407BFF"/>
<path opacity="0.3" d="M399.76 192.952H380.56C380.145 192.955 379.734 192.873 379.351 192.711C378.969 192.55 378.623 192.312 378.336 192.013C378.048 191.713 377.825 191.358 377.679 190.97C377.533 190.581 377.468 190.167 377.488 189.752L379.808 142.168C379.872 141.305 380.258 140.497 380.889 139.905C381.52 139.312 382.35 138.978 383.216 138.968H402.416C402.832 138.966 403.244 139.048 403.627 139.209C404.01 139.37 404.356 139.608 404.645 139.907C404.934 140.206 405.159 140.561 405.306 140.95C405.454 141.338 405.521 141.753 405.504 142.168L403.2 189.704C403.155 190.584 402.772 191.413 402.131 192.018C401.49 192.623 400.641 192.958 399.76 192.952V192.952Z" fill="#407BFF"/>
<path d="M438.192 192.953H418.992C418.576 192.955 418.164 192.873 417.781 192.712C417.398 192.551 417.051 192.313 416.763 192.014C416.474 191.715 416.249 191.36 416.101 190.971C415.954 190.583 415.886 190.168 415.904 189.753L418.944 127.657C419.004 126.792 419.389 125.982 420.021 125.389C420.653 124.795 421.485 124.463 422.352 124.457H441.552C441.968 124.454 442.379 124.536 442.763 124.697C443.146 124.859 443.492 125.096 443.781 125.395C444.07 125.695 444.295 126.049 444.442 126.438C444.59 126.827 444.657 127.241 444.64 127.657L441.6 189.705C441.547 190.576 441.167 191.396 440.534 191.999C439.902 192.601 439.065 192.942 438.192 192.953Z" fill="#407BFF"/>
<path d="M433.184 117.785L435.008 114.873C435.108 114.715 435.165 114.534 435.171 114.347C435.177 114.16 435.133 113.975 435.043 113.811C434.953 113.648 434.82 113.511 434.659 113.416C434.498 113.322 434.315 113.272 434.128 113.273H430.752C430.562 113.266 430.375 113.311 430.209 113.404C430.043 113.496 429.906 113.632 429.812 113.797C429.718 113.962 429.671 114.149 429.676 114.339C429.681 114.528 429.738 114.713 429.84 114.873L431.44 117.785C431.531 117.934 431.66 118.056 431.812 118.142C431.965 118.227 432.137 118.272 432.312 118.272C432.487 118.272 432.659 118.227 432.811 118.142C432.964 118.056 433.092 117.934 433.184 117.785V117.785Z" fill="#263238"/>
<path opacity="0.3" d="M476.624 192.953H457.424C457.008 192.955 456.596 192.873 456.213 192.712C455.83 192.551 455.483 192.313 455.195 192.014C454.906 191.715 454.681 191.36 454.533 190.971C454.386 190.583 454.318 190.168 454.336 189.753L456.896 137.449C456.96 136.585 457.346 135.777 457.977 135.185C458.608 134.592 459.438 134.258 460.304 134.249H479.504C479.92 134.246 480.332 134.328 480.715 134.489C481.098 134.651 481.444 134.888 481.733 135.187C482.022 135.487 482.247 135.841 482.394 136.23C482.542 136.619 482.609 137.033 482.592 137.449L480 189.705C479.951 190.572 479.576 191.39 478.95 191.992C478.324 192.595 477.493 192.938 476.624 192.953V192.953Z" fill="#407BFF"/>
<path opacity="0.1" d="M478.304 203.385H262.608C262.471 203.387 262.334 203.361 262.208 203.308C262.081 203.255 261.967 203.177 261.872 203.078C261.777 202.979 261.704 202.861 261.657 202.732C261.611 202.603 261.591 202.466 261.6 202.329V202.329C261.62 202.044 261.746 201.778 261.954 201.582C262.161 201.386 262.435 201.276 262.72 201.273H478.4C478.537 201.27 478.673 201.296 478.8 201.349C478.926 201.402 479.041 201.48 479.135 201.58C479.23 201.679 479.303 201.797 479.35 201.926C479.397 202.054 479.417 202.192 479.408 202.329C479.395 202.613 479.274 202.882 479.068 203.078C478.862 203.275 478.589 203.385 478.304 203.385V203.385Z" fill="#263238"/>
<path opacity="0.1" d="M493.664 390.457L507.552 106.777C507.564 106.505 507.681 106.249 507.878 106.061C508.074 105.873 508.336 105.768 508.608 105.769H508.704C508.835 105.766 508.965 105.791 509.086 105.841C509.206 105.892 509.315 105.967 509.406 106.062C509.496 106.156 509.565 106.269 509.61 106.392C509.654 106.515 509.673 106.646 509.664 106.777L495.792 390.457C495.776 390.729 495.659 390.985 495.463 391.174C495.268 391.364 495.008 391.473 494.736 391.481H494.624C494.493 391.479 494.364 391.45 494.244 391.397C494.124 391.344 494.016 391.268 493.927 391.172C493.837 391.077 493.768 390.964 493.723 390.841C493.677 390.718 493.657 390.588 493.664 390.457V390.457Z" fill="#263238"/>
<path d="M564.88 159.609C563.419 167.294 564.783 175.249 568.72 182.009L559.216 187.929C554.007 178.946 552.195 168.391 554.112 158.185C556.085 147.736 561.508 138.252 569.512 131.252C577.516 124.252 587.638 120.141 598.256 119.577V130.489C590.229 130.884 582.569 133.972 576.514 139.256C570.458 144.539 566.36 151.709 564.88 159.609Z" fill="#407BFF"/>
<path opacity="0.3" d="M640 147.065L629.696 151.225C627.721 145.79 624.287 141.003 619.771 137.39C615.256 133.778 609.832 131.479 604.096 130.745C602.167 130.48 600.217 130.388 598.272 130.473V119.561C607.242 119.144 616.113 121.582 623.61 126.524C631.108 131.466 636.846 138.657 640 147.065V147.065Z" fill="#407BFF"/>
<path d="M641.824 169.913C637.408 194.137 613.984 211.401 589.92 208.185C583.597 207.371 577.544 205.122 572.222 201.612C566.901 198.101 562.452 193.421 559.216 187.929L568.72 182.073C571.155 186.224 574.51 189.762 578.526 192.413C582.542 195.065 587.114 196.76 591.888 197.369C600.85 198.424 609.879 196.037 617.15 190.691C624.421 185.345 629.391 177.438 631.056 168.569C632.139 162.797 631.653 156.84 629.648 151.321L639.952 147.161C642.579 154.445 643.225 162.297 641.824 169.913Z" fill="#263238"/>
<path d="M564.608 126.681C564.498 126.683 564.389 126.662 564.287 126.621C564.186 126.58 564.093 126.518 564.016 126.441L556.928 118.969H532.576C532.364 118.969 532.16 118.884 532.01 118.734C531.86 118.584 531.776 118.381 531.776 118.169C531.776 117.956 531.86 117.753 532.01 117.603C532.16 117.453 532.364 117.369 532.576 117.369H557.264C557.373 117.368 557.48 117.391 557.579 117.435C557.679 117.479 557.767 117.544 557.84 117.625L565.184 125.337C565.297 125.447 565.374 125.589 565.405 125.745C565.436 125.9 565.419 126.061 565.356 126.206C565.294 126.351 565.189 126.475 565.056 126.559C564.922 126.644 564.766 126.686 564.608 126.681V126.681Z" fill="#263238"/>
<path opacity="0.3" d="M610.928 253.144C604.243 249.007 596.281 247.444 588.528 248.744L587.344 237.944C597.595 236.279 608.103 238.346 616.96 243.768C634.864 254.872 641.632 277.816 632.96 297.896L622.96 293.992C629.472 279.128 624.72 261.688 610.928 253.144Z" fill="#407BFF"/>
<path d="M589.232 326.441L589.968 315.513C595.963 315.572 601.875 314.11 607.152 311.264C612.429 308.419 616.899 304.282 620.144 299.241C621.236 297.576 622.184 295.82 622.976 293.993L632.976 297.897C631.929 300.324 630.676 302.658 629.232 304.873C624.92 311.545 618.993 317.021 612.001 320.792C605.008 324.562 597.176 326.505 589.232 326.441Z" fill="#263238"/>
<path d="M567.376 320.088C547.056 307.496 541.552 279.896 555.168 258.968C558.772 253.404 563.504 248.657 569.057 245.036C574.611 241.415 580.862 238.999 587.408 237.944L588.592 248.744C583.65 249.533 578.93 251.352 574.737 254.084C570.545 256.816 566.974 260.399 564.256 264.6C553.92 280.504 558.048 301.16 573.472 310.728C578.43 313.802 584.135 315.462 589.968 315.528L589.232 326.456C581.504 326.351 573.95 324.15 567.376 320.088V320.088Z" fill="#407BFF"/>
<path d="M558.832 244.585C558.614 244.578 558.407 244.486 558.256 244.329L551.152 236.857H526.8C526.588 236.857 526.384 236.773 526.234 236.623C526.084 236.472 526 236.269 526 236.057C526 235.845 526.084 235.641 526.234 235.491C526.384 235.341 526.588 235.257 526.8 235.257H551.504C551.722 235.263 551.929 235.355 552.08 235.513L559.408 243.225C559.483 243.299 559.542 243.388 559.583 243.485C559.624 243.583 559.644 243.687 559.644 243.793C559.644 243.898 559.624 244.003 559.583 244.1C559.542 244.198 559.483 244.286 559.408 244.361C559.25 244.504 559.045 244.584 558.832 244.585Z" fill="#263238"/>
<path d="M537.696 366.185H529.6C528.505 366.203 527.457 366.633 526.666 367.389C525.874 368.145 525.396 369.172 525.328 370.265L524.928 378.377C524.897 378.904 524.975 379.433 525.157 379.929C525.339 380.425 525.621 380.878 525.986 381.261C526.35 381.644 526.79 381.947 527.277 382.153C527.763 382.359 528.287 382.462 528.816 382.457H536.912C538.009 382.443 539.061 382.015 539.856 381.258C540.651 380.501 541.131 379.472 541.2 378.377L541.6 370.265C541.628 369.736 541.548 369.208 541.364 368.711C541.18 368.215 540.897 367.762 540.531 367.38C540.165 366.997 539.725 366.694 539.237 366.489C538.75 366.283 538.225 366.18 537.696 366.185Z" fill="#407BFF"/>
<path d="M583.104 366.185H575.008C573.9 366.2 572.839 366.637 572.043 367.407C571.246 368.177 570.773 369.222 570.72 370.329L570.336 378.441C570.305 378.967 570.383 379.494 570.564 379.989C570.745 380.484 571.026 380.937 571.388 381.319C571.751 381.701 572.189 382.005 572.674 382.212C573.159 382.419 573.681 382.524 574.208 382.521H582.4C583.495 382.503 584.542 382.073 585.334 381.316C586.126 380.56 586.604 379.533 586.672 378.441L587.072 370.329C587.113 369.789 587.039 369.247 586.857 368.737C586.674 368.228 586.386 367.763 586.012 367.372C585.638 366.981 585.185 366.673 584.684 366.469C584.183 366.264 583.645 366.167 583.104 366.185V366.185Z" fill="#263238"/>
<path opacity="0.3" d="M628.528 366.185H620.416C619.321 366.203 618.273 366.633 617.482 367.389C616.69 368.145 616.212 369.172 616.144 370.265L615.744 378.377C615.713 378.903 615.791 379.43 615.972 379.925C616.153 380.42 616.434 380.873 616.796 381.255C617.159 381.637 617.597 381.941 618.082 382.148C618.567 382.355 619.089 382.46 619.616 382.457H627.728C628.832 382.442 629.888 382.006 630.682 381.239C631.476 380.472 631.947 379.431 632 378.329L632.4 370.217C632.424 369.694 632.341 369.173 632.157 368.683C631.973 368.194 631.691 367.747 631.329 367.37C630.967 366.993 630.532 366.693 630.05 366.489C629.569 366.286 629.051 366.182 628.528 366.185V366.185Z" fill="#407BFF"/>
<path d="M318.976 257.178C319.01 256.488 319.187 255.976 319.505 255.643C319.827 255.311 320.247 255.144 320.766 255.144C321.303 255.144 321.714 255.311 321.998 255.643C322.287 255.973 322.414 256.484 322.379 257.178C322.345 257.868 322.167 258.379 321.845 258.712C321.527 259.044 321.108 259.211 320.589 259.211C320.053 259.211 319.64 259.046 319.351 258.717C319.066 258.384 318.941 257.871 318.976 257.178ZM320.129 257.167C320.103 257.668 320.145 258.004 320.252 258.176C320.333 258.302 320.451 258.365 320.605 258.365C320.763 258.365 320.889 258.302 320.983 258.176C321.104 258.004 321.177 257.668 321.202 257.167C321.227 256.666 321.187 256.332 321.083 256.164C321.002 256.034 320.883 255.969 320.725 255.969C320.571 255.969 320.447 256.032 320.353 256.158C320.228 256.33 320.154 256.666 320.129 257.167ZM321.486 263.272H320.391L324.906 255.144H325.969L321.486 263.272ZM323.975 261.249C324.009 260.559 324.186 260.048 324.504 259.715C324.826 259.382 325.25 259.216 325.776 259.216C326.305 259.216 326.712 259.382 326.997 259.715C327.286 260.048 327.413 260.559 327.378 261.249C327.344 261.943 327.165 262.456 326.844 262.789C326.525 263.121 326.107 263.288 325.588 263.288C325.051 263.288 324.639 263.121 324.35 262.789C324.065 262.456 323.94 261.943 323.975 261.249ZM325.127 261.244C325.102 261.745 325.143 262.079 325.251 262.247C325.332 262.377 325.45 262.442 325.604 262.442C325.762 262.442 325.886 262.379 325.976 262.253C326.101 262.081 326.175 261.745 326.2 261.244C326.225 260.743 326.186 260.407 326.082 260.235C326.001 260.109 325.881 260.046 325.724 260.046C325.566 260.046 325.442 260.109 325.351 260.235C325.227 260.407 325.152 260.743 325.127 261.244Z" fill="#263238"/>
<path d="M345.2 294.793H345.008C344.905 294.77 344.808 294.727 344.722 294.666C344.636 294.605 344.563 294.528 344.508 294.438C344.453 294.349 344.416 294.249 344.4 294.145C344.384 294.041 344.39 293.935 344.416 293.833C349.824 271.097 361.296 247.801 374.816 247.049C383.856 246.537 389.008 254.089 394.976 262.809C399.296 269.097 404.176 276.217 411.328 281.593C416.256 285.289 421.28 286.249 426.272 284.457C437.392 280.441 448.032 262.345 454.048 237.241C454.073 237.136 454.119 237.036 454.182 236.949C454.246 236.862 454.326 236.788 454.418 236.731C454.51 236.675 454.612 236.637 454.719 236.62C454.826 236.603 454.935 236.607 455.04 236.633C455.145 236.658 455.244 236.703 455.331 236.767C455.419 236.83 455.493 236.911 455.549 237.003C455.606 237.095 455.643 237.197 455.66 237.304C455.677 237.411 455.673 237.52 455.648 237.625C449.424 263.625 438.656 281.705 426.848 285.961C421.312 287.945 415.776 286.905 410.4 282.873C403.04 277.353 398.08 270.073 393.696 263.673C387.744 255.001 383.072 248.169 374.944 248.601C362.32 249.305 351.36 271.993 346.144 294.153C346.125 294.257 346.085 294.357 346.027 294.445C345.969 294.534 345.894 294.611 345.806 294.67C345.718 294.73 345.619 294.771 345.515 294.792C345.411 294.813 345.304 294.813 345.2 294.793Z" fill="#407BFF"/>
<path opacity="0.1" d="M462.4 305.865H268.56C266.904 305.876 265.263 305.548 263.738 304.901C262.213 304.254 260.838 303.301 259.695 302.102C258.553 300.902 257.668 299.482 257.096 297.928C256.524 296.373 256.276 294.718 256.368 293.065L259.2 236.617C259.39 233.185 260.878 229.953 263.361 227.577C265.845 225.2 269.139 223.856 272.576 223.817H466.336C467.992 223.805 469.633 224.133 471.158 224.781C472.682 225.428 474.058 226.38 475.2 227.58C476.343 228.779 477.227 230.2 477.799 231.754C478.372 233.308 478.62 234.963 478.528 236.617L475.776 293.049C475.589 296.484 474.103 299.719 471.619 302.099C469.136 304.479 465.84 305.825 462.4 305.865ZM272.496 225.465C269.481 225.499 266.592 226.673 264.407 228.751C262.223 230.829 260.905 233.656 260.72 236.665L257.968 293.097C257.873 294.541 258.077 295.989 258.568 297.35C259.059 298.711 259.825 299.957 260.82 301.008C261.814 302.06 263.015 302.894 264.347 303.46C265.678 304.026 267.113 304.311 268.56 304.297H462.4C465.414 304.262 468.304 303.088 470.488 301.01C472.673 298.933 473.99 296.106 474.176 293.097L476.944 236.665C477.034 235.22 476.826 233.773 476.332 232.413C475.839 231.052 475.071 229.808 474.076 228.758C473.08 227.707 471.88 226.873 470.548 226.306C469.217 225.739 467.783 225.453 466.336 225.465H272.496Z" fill="#263238"/>
<path opacity="0.1" d="M310.496 239.865H279.168C278.691 239.865 278.219 239.769 277.781 239.581C277.343 239.393 276.948 239.117 276.62 238.771C276.292 238.425 276.038 238.016 275.873 237.569C275.709 237.121 275.638 236.645 275.664 236.169C275.717 235.195 276.138 234.278 276.842 233.603C277.546 232.929 278.481 232.547 279.456 232.537H310.768C311.246 232.534 311.72 232.629 312.16 232.816C312.6 233.003 312.997 233.278 313.326 233.624C313.656 233.97 313.912 234.38 314.077 234.829C314.242 235.278 314.314 235.755 314.288 236.233C314.231 237.205 313.809 238.12 313.106 238.794C312.402 239.468 311.47 239.85 310.496 239.865V239.865ZM279.456 234.137C278.894 234.148 278.357 234.369 277.951 234.757C277.545 235.146 277.3 235.672 277.264 236.233C277.244 236.495 277.279 236.759 277.368 237.007C277.456 237.255 277.595 237.482 277.776 237.673C277.957 237.858 278.174 238.006 278.413 238.108C278.652 238.209 278.908 238.263 279.168 238.265H310.496C311.056 238.25 311.591 238.027 311.997 237.64C312.402 237.252 312.648 236.728 312.688 236.169C312.704 235.905 312.666 235.641 312.575 235.393C312.484 235.145 312.343 234.919 312.16 234.729C311.982 234.538 311.767 234.386 311.527 234.284C311.287 234.182 311.028 234.132 310.768 234.137H279.456Z" fill="#263238"/>
<path d="M282.08 287.449H273.952L273.552 295.577H281.68L282.08 287.449Z" fill="#407BFF"/>
<path opacity="0.3" d="M290.992 391.4H274.416C273.699 391.406 272.989 391.264 272.329 390.985C271.669 390.705 271.073 390.293 270.578 389.775C270.084 389.256 269.7 388.641 269.452 387.969C269.204 387.296 269.096 386.58 269.136 385.864L269.952 369.272C270.041 367.785 270.688 366.386 271.766 365.356C272.843 364.326 274.27 363.742 275.76 363.72H292.352C293.069 363.715 293.78 363.857 294.441 364.137C295.101 364.418 295.697 364.832 296.19 365.352C296.684 365.873 297.065 366.49 297.311 367.164C297.556 367.839 297.66 368.556 297.616 369.272L296.816 385.864C296.719 387.351 296.066 388.746 294.987 389.772C293.907 390.798 292.481 391.379 290.992 391.4V391.4Z" fill="#407BFF"/>
<path opacity="0.1" d="M354.592 382.345H311.824C311.202 382.35 310.586 382.228 310.014 381.986C309.441 381.743 308.925 381.386 308.496 380.936C308.067 380.486 307.735 379.953 307.52 379.37C307.305 378.787 307.213 378.165 307.248 377.545C307.309 376.261 307.858 375.049 308.783 374.157C309.708 373.265 310.939 372.76 312.224 372.745H354.976C355.597 372.742 356.213 372.866 356.785 373.108C357.357 373.351 357.874 373.708 358.304 374.157C358.734 374.606 359.067 375.138 359.285 375.721C359.502 376.303 359.598 376.924 359.568 377.545C359.507 378.828 358.958 380.04 358.033 380.932C357.108 381.825 355.877 382.33 354.592 382.345V382.345ZM312.224 374.345C311.361 374.358 310.534 374.694 309.907 375.286C309.279 375.879 308.896 376.684 308.832 377.545C308.813 377.951 308.875 378.357 309.016 378.739C309.156 379.121 309.371 379.471 309.648 379.769C309.93 380.06 310.268 380.291 310.642 380.448C311.016 380.605 311.418 380.684 311.824 380.681H354.592C355.455 380.674 356.284 380.34 356.911 379.746C357.537 379.152 357.915 378.342 357.968 377.481C357.996 377.073 357.938 376.665 357.798 376.281C357.657 375.898 357.437 375.549 357.152 375.257C356.872 374.961 356.535 374.725 356.161 374.566C355.786 374.406 355.383 374.325 354.976 374.329L312.224 374.345Z" fill="#263238"/>
<path d="M283.2 382.345C283.095 382.341 282.991 382.316 282.896 382.272C282.801 382.228 282.715 382.165 282.643 382.088C282.572 382.011 282.517 381.92 282.48 381.821C282.444 381.723 282.428 381.618 282.432 381.513L282.784 374.425C282.783 374.319 282.805 374.214 282.848 374.117C282.89 374.02 282.953 373.934 283.032 373.863C283.11 373.792 283.203 373.738 283.303 373.705C283.404 373.673 283.511 373.661 283.616 373.673C283.721 373.677 283.824 373.702 283.92 373.746C284.015 373.79 284.101 373.852 284.172 373.93C284.244 374.007 284.299 374.097 284.335 374.196C284.372 374.295 284.388 374.4 284.384 374.505L284.032 381.593C284.019 381.802 283.925 381.998 283.77 382.139C283.614 382.28 283.409 382.353 283.2 382.345Z" fill="#407BFF"/>
<path d="M280.144 377.656C279.926 377.65 279.719 377.558 279.568 377.4C279.493 377.326 279.433 377.238 279.393 377.14C279.352 377.043 279.331 376.938 279.331 376.832C279.331 376.727 279.352 376.622 279.393 376.525C279.433 376.427 279.493 376.339 279.568 376.264L282.992 373.064C283.147 372.917 283.354 372.837 283.568 372.84C283.78 372.854 283.979 372.945 284.128 373.096L287.232 376.296C287.378 376.451 287.457 376.658 287.451 376.871C287.445 377.084 287.355 377.286 287.2 377.432C287.045 377.579 286.838 377.658 286.625 377.652C286.412 377.646 286.21 377.555 286.064 377.4L283.52 374.712L280.672 377.432C280.527 377.565 280.34 377.644 280.144 377.656V377.656Z" fill="#407BFF"/>
<path d="M274.095 336.221L274.205 334.02C273.528 333.824 273.037 333.528 272.735 333.132C272.435 332.733 272.3 332.25 272.328 331.682C272.357 331.108 272.562 330.626 272.942 330.237C273.327 329.845 273.822 329.619 274.428 329.56L274.454 329.04H275.217L275.191 329.56C275.745 329.626 276.179 329.817 276.493 330.132C276.807 330.444 276.997 330.863 277.062 331.388L275.722 331.561C275.662 331.148 275.466 330.868 275.133 330.721L275.03 332.775C275.861 333.003 276.419 333.299 276.706 333.663C276.993 334.024 277.122 334.488 277.094 335.055C277.062 335.689 276.843 336.223 276.435 336.658C276.031 337.092 275.485 337.358 274.796 337.456L274.747 338.439H273.984L274.032 337.482C273.429 337.409 272.948 337.183 272.588 336.805C272.228 336.426 272.013 335.892 271.942 335.202L273.322 335.055C273.364 335.335 273.458 335.577 273.602 335.78C273.746 335.983 273.91 336.13 274.095 336.221ZM274.371 330.705C274.161 330.775 273.99 330.894 273.859 331.062C273.727 331.23 273.657 331.416 273.647 331.619C273.637 331.805 273.685 331.978 273.789 332.139C273.893 332.297 274.057 332.425 274.28 332.523L274.371 330.705ZM274.854 336.295C275.12 336.246 275.34 336.125 275.514 335.933C275.689 335.736 275.783 335.507 275.796 335.244C275.808 335.01 275.747 334.808 275.616 334.64C275.487 334.468 275.268 334.337 274.957 334.246L274.854 336.295ZM277.97 335.318L279.409 335.144C279.437 335.509 279.546 335.787 279.736 335.98C279.926 336.172 280.163 336.269 280.447 336.269C280.752 336.269 281.014 336.153 281.233 335.922C281.455 335.691 281.575 335.379 281.595 334.987C281.614 334.616 281.528 334.321 281.339 334.104C281.15 333.887 280.912 333.778 280.624 333.778C280.435 333.778 280.207 333.815 279.94 333.889L280.164 332.686C280.563 332.696 280.872 332.61 281.092 332.428C281.311 332.243 281.429 331.997 281.444 331.693C281.457 331.434 281.39 331.227 281.244 331.073C281.097 330.919 280.896 330.842 280.64 330.842C280.387 330.842 280.167 330.929 279.98 331.104C279.792 331.279 279.67 331.535 279.615 331.871L278.264 331.64C278.382 331.174 278.543 330.803 278.746 330.526C278.953 330.246 279.23 330.027 279.578 329.87C279.93 329.709 280.318 329.628 280.743 329.628C281.468 329.628 282.039 329.859 282.454 330.321C282.797 330.7 282.956 331.127 282.932 331.603C282.898 332.279 282.501 332.819 281.741 333.222C282.178 333.316 282.52 333.528 282.767 333.857C283.017 334.187 283.13 334.584 283.107 335.05C283.073 335.726 282.797 336.302 282.279 336.778C281.76 337.255 281.133 337.493 280.397 337.493C279.699 337.493 279.13 337.293 278.691 336.894C278.251 336.491 278.011 335.966 277.97 335.318ZM288.978 335.99L288.909 337.362H283.728C283.81 336.843 284.003 336.353 284.306 335.89C284.61 335.425 285.195 334.808 286.061 334.041C286.758 333.421 287.188 333.001 287.35 332.78C287.568 332.476 287.685 332.174 287.7 331.877C287.716 331.547 287.64 331.295 287.47 331.12C287.303 330.941 287.064 330.852 286.752 330.852C286.443 330.852 286.193 330.945 286.001 331.131C285.81 331.316 285.689 331.624 285.64 332.055L284.174 331.908C284.302 331.096 284.607 330.512 285.087 330.159C285.568 329.805 286.155 329.628 286.85 329.628C287.611 329.628 288.198 329.833 288.613 330.243C289.027 330.652 289.219 331.162 289.189 331.772C289.171 332.118 289.092 332.449 288.95 332.764C288.811 333.076 288.599 333.404 288.311 333.747C288.121 333.975 287.782 334.302 287.294 334.729C286.807 335.157 286.496 335.44 286.363 335.581C286.233 335.721 286.126 335.857 286.042 335.99H288.978ZM289.964 335.318L291.403 335.144C291.43 335.509 291.539 335.787 291.729 335.98C291.92 336.172 292.157 336.269 292.441 336.269C292.746 336.269 293.008 336.153 293.226 335.922C293.448 335.691 293.569 335.379 293.589 334.987C293.607 334.616 293.522 334.321 293.333 334.104C293.144 333.887 292.906 333.778 292.618 333.778C292.429 333.778 292.201 333.815 291.934 333.889L292.157 332.686C292.556 332.696 292.866 332.61 293.085 332.428C293.305 332.243 293.423 331.997 293.438 331.693C293.451 331.434 293.384 331.227 293.237 331.073C293.091 330.919 292.889 330.842 292.633 330.842C292.381 330.842 292.161 330.929 291.973 331.104C291.786 331.279 291.664 331.535 291.609 331.871L290.258 331.64C290.376 331.174 290.536 330.803 290.74 330.526C290.947 330.246 291.224 330.027 291.572 329.87C291.924 329.709 292.312 329.628 292.736 329.628C293.462 329.628 294.033 329.859 294.448 330.321C294.79 330.7 294.949 331.127 294.926 331.603C294.892 332.279 294.495 332.819 293.735 333.222C294.172 333.316 294.514 333.528 294.76 333.857C295.01 334.187 295.124 334.584 295.1 335.05C295.067 335.726 294.791 336.302 294.272 336.778C293.754 337.255 293.127 337.493 292.39 337.493C291.692 337.493 291.124 337.293 290.684 336.894C290.245 336.491 290.005 335.966 289.964 335.318ZM296.263 335.885H297.742L297.689 336.941C297.667 337.369 297.614 337.705 297.528 337.95C297.442 338.199 297.29 338.421 297.074 338.617C296.86 338.813 296.593 338.967 296.272 339.08L296.013 338.47C296.316 338.372 296.535 338.237 296.67 338.066C296.805 337.894 296.883 337.659 296.905 337.362H296.19L296.263 335.885ZM301.794 329.628C302.541 329.628 303.112 329.894 303.506 330.427C303.976 331.057 304.175 332.102 304.102 333.563C304.029 335.02 303.724 336.067 303.187 336.705C302.744 337.23 302.148 337.493 301.401 337.493C300.651 337.493 300.06 337.206 299.63 336.631C299.199 336.053 299.021 335.025 299.095 333.547C299.167 332.097 299.472 331.053 300.009 330.416C300.452 329.891 301.048 329.628 301.794 329.628ZM301.733 330.852C301.554 330.852 301.392 330.91 301.246 331.025C301.1 331.138 300.981 331.341 300.889 331.635C300.769 332.017 300.686 332.659 300.64 333.563C300.595 334.467 300.61 335.088 300.684 335.428C300.758 335.764 300.861 335.989 300.992 336.101C301.127 336.213 301.284 336.269 301.462 336.269C301.641 336.269 301.804 336.213 301.95 336.101C302.096 335.985 302.215 335.78 302.306 335.486C302.427 335.108 302.51 334.467 302.555 333.563C302.6 332.659 302.586 332.039 302.511 331.703C302.437 331.363 302.333 331.138 302.198 331.025C302.067 330.91 301.912 330.852 301.733 330.852ZM305.217 331.136L305.286 329.765H310.341L310.287 330.836C309.85 331.246 309.396 331.835 308.926 332.602C308.456 333.369 308.086 334.185 307.815 335.05C307.547 335.911 307.398 336.682 307.368 337.362H305.942C306.02 336.297 306.294 335.211 306.763 334.104C307.235 332.997 307.841 332.008 308.579 331.136H305.217ZM312.378 333.206C312.004 333.045 311.736 332.824 311.575 332.544C311.417 332.26 311.347 331.95 311.364 331.614C311.392 331.039 311.616 330.565 312.035 330.19C312.457 329.815 313.038 329.628 313.778 329.628C314.511 329.628 315.069 329.815 315.454 330.19C315.842 330.565 316.022 331.039 315.993 331.614C315.975 331.971 315.866 332.29 315.666 332.57C315.467 332.847 315.195 333.059 314.851 333.206C315.27 333.377 315.582 333.628 315.786 333.957C315.994 334.286 316.087 334.666 316.066 335.097C316.03 335.808 315.774 336.386 315.295 336.831C314.821 337.276 314.206 337.498 313.452 337.498C312.751 337.498 312.176 337.314 311.728 336.946C311.199 336.512 310.954 335.917 310.992 335.16C311.013 334.743 311.135 334.362 311.359 334.015C311.584 333.665 311.923 333.395 312.378 333.206ZM312.758 331.719C312.743 332.013 312.814 332.243 312.971 332.407C313.131 332.572 313.349 332.654 313.626 332.654C313.907 332.654 314.135 332.572 314.312 332.407C314.489 332.239 314.584 332.008 314.599 331.714C314.613 331.437 314.54 331.216 314.38 331.052C314.223 330.884 314.008 330.8 313.735 330.8C313.451 330.8 313.22 330.884 313.044 331.052C312.867 331.22 312.772 331.442 312.758 331.719ZM312.456 335.018C312.436 335.425 312.523 335.742 312.719 335.969C312.918 336.197 313.173 336.311 313.486 336.311C313.791 336.311 314.049 336.202 314.259 335.985C314.47 335.764 314.586 335.447 314.607 335.034C314.625 334.673 314.538 334.384 314.345 334.167C314.153 333.947 313.9 333.836 313.588 333.836C313.227 333.836 312.951 333.961 312.759 334.209C312.572 334.458 312.471 334.728 312.456 335.018ZM317.215 337.362L317.289 335.885H318.767L318.693 337.362H317.215ZM322.783 329.628C323.53 329.628 324.101 329.894 324.495 330.427C324.965 331.057 325.164 332.102 325.091 333.563C325.018 335.02 324.713 336.067 324.176 336.705C323.732 337.23 323.137 337.493 322.39 337.493C321.64 337.493 321.049 337.206 320.618 336.631C320.188 336.053 320.01 335.025 320.083 333.547C320.156 332.097 320.461 331.053 320.998 330.416C321.441 329.891 322.036 329.628 322.783 329.628ZM322.722 330.852C322.543 330.852 322.381 330.91 322.235 331.025C322.089 331.138 321.97 331.341 321.878 331.635C321.757 332.017 321.674 332.659 321.629 333.563C321.584 334.467 321.599 335.088 321.673 335.428C321.747 335.764 321.85 335.989 321.981 336.101C322.116 336.213 322.272 336.269 322.451 336.269C322.63 336.269 322.793 336.213 322.938 336.101C323.084 335.985 323.203 335.78 323.295 335.486C323.416 335.108 323.499 334.467 323.544 333.563C323.589 332.659 323.575 332.039 323.5 331.703C323.426 331.363 323.322 331.138 323.187 331.025C323.056 330.91 322.901 330.852 322.722 330.852ZM328.78 329.628C329.527 329.628 330.098 329.894 330.492 330.427C330.962 331.057 331.16 332.102 331.087 333.563C331.014 335.02 330.71 336.067 330.173 336.705C329.729 337.23 329.134 337.493 328.387 337.493C327.636 337.493 327.046 337.206 326.615 336.631C326.185 336.053 326.006 335.025 326.08 333.547C326.153 332.097 326.457 331.053 326.994 330.416C327.438 329.891 328.033 329.628 328.78 329.628ZM328.719 330.852C328.54 330.852 328.378 330.91 328.232 331.025C328.086 331.138 327.967 331.341 327.875 331.635C327.754 332.017 327.671 332.659 327.626 333.563C327.581 334.467 327.595 335.088 327.67 335.428C327.744 335.764 327.847 335.989 327.978 336.101C328.113 336.213 328.269 336.269 328.448 336.269C328.627 336.269 328.789 336.213 328.935 336.101C329.081 335.985 329.2 335.78 329.292 335.486C329.413 335.108 329.496 334.467 329.541 333.563C329.586 332.659 329.571 332.039 329.497 331.703C329.423 331.363 329.318 331.138 329.184 331.025C329.053 330.91 328.898 330.852 328.719 330.852Z" fill="#263238"/>
<path opacity="0.4" d="M400.368 363.72H383.792C382.3 363.742 380.872 364.325 379.792 365.355C378.712 366.384 378.06 367.783 377.968 369.272L377.168 385.864C377.126 386.579 377.232 387.295 377.478 387.968C377.724 388.64 378.106 389.255 378.599 389.774C379.093 390.293 379.688 390.705 380.347 390.985C381.006 391.265 381.716 391.406 382.432 391.4H399.024C400.511 391.379 401.936 390.797 403.013 389.771C404.09 388.744 404.739 387.349 404.832 385.864L405.648 369.272C405.69 368.555 405.584 367.837 405.336 367.163C405.089 366.489 404.707 365.872 404.212 365.352C403.717 364.831 403.12 364.418 402.459 364.137C401.798 363.857 401.086 363.715 400.368 363.72V363.72Z" fill="#263238"/>
<path opacity="0.1" d="M462.608 382.345H419.856C419.234 382.348 418.619 382.224 418.046 381.981C417.474 381.738 416.958 381.381 416.528 380.932C416.098 380.483 415.764 379.951 415.547 379.368C415.33 378.786 415.233 378.165 415.264 377.545C415.325 376.261 415.874 375.049 416.799 374.157C417.724 373.265 418.955 372.759 420.24 372.745H463.008C463.629 372.744 464.243 372.869 464.815 373.113C465.386 373.357 465.902 373.714 466.331 374.162C466.76 374.611 467.094 375.142 467.312 375.723C467.53 376.305 467.628 376.924 467.6 377.545C467.535 378.83 466.982 380.042 466.055 380.933C465.127 381.825 463.895 382.33 462.608 382.345V382.345ZM420.24 374.345C419.379 374.359 418.554 374.695 417.929 375.288C417.304 375.88 416.924 376.685 416.864 377.545C416.845 377.951 416.908 378.357 417.048 378.739C417.188 379.121 417.403 379.471 417.68 379.769C417.961 380.061 418.299 380.293 418.674 380.449C419.048 380.606 419.45 380.685 419.856 380.681H462.608C463.473 380.674 464.304 380.341 464.933 379.747C465.562 379.154 465.943 378.344 466 377.481C466.031 377.07 465.976 376.657 465.84 376.269C465.703 375.881 465.487 375.525 465.206 375.224C464.925 374.923 464.584 374.684 464.206 374.522C463.828 374.359 463.42 374.277 463.008 374.281L420.24 374.345Z" fill="#263238"/>
<path d="M391.248 381.529C391.143 381.524 391.04 381.5 390.944 381.456C390.849 381.411 390.763 381.349 390.691 381.272C390.62 381.195 390.565 381.104 390.528 381.005C390.492 380.907 390.476 380.802 390.48 380.697L390.832 373.609C390.832 373.502 390.853 373.397 390.896 373.299C390.938 373.201 391.001 373.114 391.079 373.042C391.157 372.969 391.25 372.914 391.35 372.88C391.451 372.845 391.558 372.832 391.664 372.841C391.878 372.853 392.078 372.949 392.221 373.107C392.365 373.266 392.441 373.475 392.432 373.689L392.08 380.761C392.076 380.866 392.051 380.969 392.007 381.064C391.963 381.16 391.9 381.246 391.823 381.317C391.746 381.388 391.655 381.444 391.557 381.48C391.458 381.516 391.353 381.533 391.248 381.529V381.529Z" fill="white"/>
<path d="M391.216 382.345C391.006 382.337 390.806 382.251 390.656 382.105L387.552 378.905C387.477 378.83 387.417 378.742 387.377 378.644C387.336 378.547 387.315 378.442 387.315 378.337C387.315 378.231 387.336 378.126 387.377 378.029C387.417 377.932 387.477 377.843 387.552 377.769C387.626 377.694 387.715 377.634 387.812 377.594C387.91 377.553 388.014 377.532 388.12 377.532C388.225 377.532 388.33 377.553 388.427 377.594C388.525 377.634 388.613 377.694 388.688 377.769L391.232 380.457L394.08 377.737C394.154 377.662 394.243 377.602 394.34 377.562C394.438 377.521 394.542 377.5 394.648 377.5C394.753 377.5 394.858 377.521 394.955 377.562C395.053 377.602 395.141 377.662 395.216 377.737C395.29 377.81 395.35 377.897 395.39 377.993C395.43 378.089 395.451 378.192 395.451 378.297C395.451 378.401 395.43 378.504 395.39 378.6C395.35 378.697 395.29 378.784 395.216 378.857L391.792 382.137C391.632 382.275 391.427 382.35 391.216 382.345V382.345Z" fill="white"/>
<path d="M179.376 103.129C172.976 111.465 171.792 122.953 172.16 128.825C172.608 136.105 163.088 136.441 165.76 149.113C168.048 160.089 161.376 163.513 161.536 172.105C161.888 192.025 179.76 197.913 213.088 192.025C246.416 186.137 226.4 155.704 230.848 143.72C235.296 131.736 231.776 103.641 222.848 104.905C223.824 83.7525 192.224 86.5045 179.376 103.129Z" fill="#263238"/>
<path d="M190.64 192.729C190.416 196.777 189.984 200.425 189.456 204.249C188.928 208.073 188.24 211.785 187.392 215.529C186.544 219.273 185.584 223.049 184.4 226.729C183.193 230.555 181.734 234.296 180.032 237.929L179.664 238.729C178.809 240.587 177.274 242.047 175.376 242.809C173.477 243.571 171.359 243.577 169.456 242.825C167.266 241.923 165.129 240.898 163.056 239.753C161.024 238.665 159.152 237.449 157.264 236.265C155.376 235.081 153.6 233.753 151.84 232.409C150.08 231.065 148.384 229.689 146.704 228.121C145.999 227.375 145.546 226.427 145.41 225.41C145.273 224.393 145.459 223.359 145.942 222.454C146.424 221.548 147.179 220.817 148.1 220.364C149.021 219.911 150.06 219.759 151.072 219.929H151.232C153.28 220.393 155.344 221.001 157.36 221.529L163.36 223.289L169.2 225.001C171.088 225.545 172.976 226.009 174.656 226.377L164.064 231.273C165.104 228.297 165.952 225.113 166.752 221.849C167.552 218.585 168.144 215.209 168.736 211.817C169.328 208.425 169.824 204.985 170.336 201.529C170.848 198.073 171.2 194.521 171.568 191.305V191.129C171.78 188.583 172.995 186.225 174.946 184.575C176.896 182.924 179.422 182.117 181.968 182.329C184.514 182.541 186.872 183.756 188.522 185.706C190.172 187.657 190.98 190.183 190.768 192.729H190.64Z" fill="#B55B52"/>
<path d="M145.44 214.409L141.504 213.017C141.021 212.846 140.509 212.773 139.998 212.802C139.486 212.832 138.986 212.963 138.525 213.187C138.065 213.412 137.654 213.727 137.317 214.112C136.979 214.498 136.722 214.947 136.56 215.433L135.056 219.929C134.766 220.796 134.796 221.738 135.139 222.586C135.482 223.434 136.117 224.131 136.928 224.553L141.856 227.145C141.856 227.145 149.856 233.289 153.872 229.529L156.064 223.129L150.128 217.353C148.794 216.047 147.196 215.043 145.44 214.409V214.409Z" fill="#B55B52"/>
<path d="M188.688 170.712C176.896 172.936 174.4 177.752 165.712 195.656C168.336 207.432 190.72 217.784 190.72 217.784C190.72 217.784 208.128 185.944 188.688 170.712Z" fill="#263238"/>
<path d="M208.928 574.665C216.32 564.809 216.928 562.089 221.584 556.905C224.141 553.933 227.042 551.274 230.224 548.985C233.328 546.473 231.472 542.841 228.624 541.305C226.4 540.121 223.952 539.065 221.264 537.497L209.072 547.449C210.272 553.097 207.76 564.873 202.672 572.713C198.944 578.329 205.968 578.601 208.928 574.665Z" fill="#263238"/>
<path d="M172.928 260.36C172.928 260.36 161.568 340.072 153.104 394.456C151.38 405.036 152.416 415.882 156.112 425.944C170.592 464.52 208.128 548.392 208.128 548.392C209.856 550.088 220.24 540.216 221.248 537.496C221.248 537.496 208.272 431.496 188.096 407.736C229.264 322.808 228.624 260.36 228.624 260.36H172.928Z" fill="#407BFF"/>
<g opacity="0.2">
<path d="M228.592 262.729L198.192 264.857C198.192 264.857 192.304 352.409 191.04 401.497C224.784 329.273 228.24 274.505 228.592 262.729Z" fill="black"/>
<path d="M190.864 411.544C190.448 436.712 189.184 469.464 186.704 499.72C194.4 517.432 201.328 533.096 205.12 541.608C208.768 531.064 212.832 518.472 216.496 505.128C211.392 474.328 202.448 429.912 190.864 411.544Z" fill="black"/>
</g>
<path d="M202.752 544.249C203.68 545.609 205.296 548.057 206.416 549.913C206.516 550.059 206.645 550.183 206.795 550.278C206.945 550.373 207.112 550.436 207.287 550.465C207.462 550.493 207.641 550.486 207.813 550.443C207.985 550.4 208.147 550.323 208.288 550.217C213.413 546.559 218.229 542.487 222.688 538.041C222.901 537.841 223.05 537.582 223.116 537.297C223.181 537.012 223.161 536.714 223.056 536.441L220.608 530.873C220.517 530.693 220.386 530.536 220.225 530.415C220.064 530.294 219.877 530.212 219.679 530.175C219.481 530.138 219.277 530.147 219.083 530.201C218.889 530.255 218.71 530.354 218.56 530.489L203.2 542.345C202.902 542.55 202.692 542.858 202.609 543.21C202.526 543.562 202.577 543.932 202.752 544.249Z" fill="#407BFF"/>
<path opacity="0.3" d="M202.752 544.249C203.68 545.609 205.296 548.057 206.416 549.913C206.516 550.059 206.645 550.183 206.795 550.278C206.945 550.373 207.112 550.436 207.287 550.465C207.462 550.493 207.641 550.486 207.813 550.443C207.985 550.4 208.147 550.323 208.288 550.217C213.413 546.559 218.229 542.487 222.688 538.041C222.901 537.841 223.05 537.582 223.116 537.297C223.181 537.012 223.161 536.714 223.056 536.441L220.608 530.873C220.517 530.693 220.386 530.536 220.225 530.415C220.064 530.294 219.877 530.212 219.679 530.175C219.481 530.138 219.277 530.147 219.083 530.201C218.889 530.255 218.71 530.354 218.56 530.489L203.2 542.345C202.902 542.55 202.692 542.858 202.609 543.21C202.526 543.562 202.577 543.932 202.752 544.249Z" fill="white"/>
<path d="M166.512 578.6C178.128 580.904 182.608 581.624 189.232 582.712C194.896 583.624 195.952 584.568 200.432 585.368C204.208 586.024 205.552 582.568 206.096 578.376C206.384 576.28 206.896 571.112 207.488 567.752L189.488 566.792C185.2 570.696 173.76 571.976 166.864 571.592C160.32 571.08 161.888 577.672 166.512 578.6Z" fill="#263238"/>
<path d="M189.632 260.36C189.632 260.36 195.6 362.76 196.704 409.16C197.84 457.88 196.912 533.96 188.08 566.376C190.496 567.976 201.696 567.976 207.536 566.28C207.536 566.28 243.904 463.08 230.208 411.32C257.776 297.304 241.408 270.376 236.816 260.408L189.632 260.36Z" fill="#407BFF"/>
<path d="M189.616 559.705C188.878 561.894 187.996 564.032 186.976 566.105C186.876 566.254 186.812 566.425 186.792 566.604C186.772 566.782 186.795 566.963 186.859 567.131C186.923 567.299 187.027 567.449 187.162 567.568C187.296 567.688 187.458 567.773 187.632 567.817C193.856 569.417 203.808 568.825 206.992 568.569C207.3 568.538 207.596 568.43 207.851 568.253C208.105 568.077 208.311 567.839 208.448 567.561L211.312 561.577C211.417 561.412 211.476 561.223 211.484 561.029C211.491 560.834 211.448 560.641 211.357 560.468C211.266 560.296 211.131 560.151 210.966 560.048C210.8 559.945 210.611 559.887 210.416 559.881L191.376 558.505C190.994 558.498 190.62 558.609 190.305 558.824C189.989 559.039 189.749 559.347 189.616 559.705Z" fill="#407BFF"/>
<path opacity="0.3" d="M189.616 559.705C188.878 561.894 187.996 564.032 186.976 566.105C186.876 566.254 186.812 566.425 186.792 566.604C186.772 566.782 186.795 566.963 186.859 567.131C186.923 567.299 187.027 567.449 187.162 567.568C187.296 567.688 187.458 567.773 187.632 567.817C193.856 569.417 203.808 568.825 206.992 568.569C207.3 568.538 207.596 568.43 207.851 568.253C208.105 568.077 208.311 567.839 208.448 567.561L211.312 561.577C211.417 561.412 211.476 561.223 211.484 561.029C211.491 560.834 211.448 560.641 211.357 560.468C211.266 560.296 211.131 560.151 210.966 560.048C210.8 559.945 210.611 559.887 210.416 559.881L191.376 558.505C190.994 558.498 190.62 558.609 190.305 558.824C189.989 559.039 189.749 559.347 189.616 559.705Z" fill="white"/>
<path d="M236.368 169.865C233.824 169.609 231.152 169.385 228.368 169.257C218.711 168.568 209.017 168.568 199.36 169.257C196.16 169.545 192.96 169.945 189.76 170.377C184.244 171.181 179.18 173.88 175.437 178.012C171.694 182.143 169.506 187.448 169.248 193.017C169.056 199.305 170.416 208.793 171.728 223.753C173.456 243.257 168.704 253.177 172.864 260.361C181.008 268.105 218.4 264.233 236.752 260.361C242.272 253.257 231.472 234.761 249.04 189.225C252.624 180.121 245.84 170.825 236.368 169.865Z" fill="#263238"/>
<path d="M198.4 184.825C198.064 186.025 197.376 186.857 196.8 186.713C196.224 186.569 196.112 185.481 196.448 184.297C196.784 183.113 197.488 182.265 198.048 182.409C198.608 182.553 198.752 183.641 198.4 184.825Z" fill="white"/>
<path d="M196.064 194.697C195.904 195.929 195.344 196.873 194.8 196.793C194.256 196.713 193.952 195.689 194.096 194.457C194.24 193.225 194.816 192.297 195.344 192.361C195.872 192.425 196.208 193.465 196.064 194.697Z" fill="white"/>
<path d="M222.256 137.593C221.968 147.193 220.736 163.033 226.8 169.257C226.8 169.257 217.952 167.929 199.184 179.545C193.744 171.737 197.776 169.257 197.776 169.257C199.216 169.047 200.587 168.503 201.78 167.669C202.972 166.834 203.953 165.732 204.643 164.451C205.333 163.17 205.714 161.745 205.756 160.29C205.797 158.835 205.497 157.391 204.88 156.073L222.256 137.593Z" fill="#B55B52"/>
<path d="M203.2 177.208C209.392 178.088 211.328 187.416 211.328 187.416C211.328 187.416 226.176 176.92 230.88 169.512C229.012 168.463 227.201 167.315 225.456 166.072C225.456 166.072 206.736 173.64 203.2 177.208Z" fill="white"/>
<path d="M197.248 176.2C197.248 176.2 192.336 177.272 189.872 184.104C188.464 170.488 194.912 169.224 194.912 169.224C196.619 168.285 198.61 168 200.512 168.424C199.147 169.137 198.074 170.304 197.478 171.724C196.882 173.144 196.801 174.727 197.248 176.2V176.2Z" fill="white"/>
<path opacity="0.2" d="M211.392 150.264L208.944 151.752L204.88 156.072C205.934 158.27 206.072 160.797 205.264 163.096C209.904 161.304 214.576 157.672 215.808 153.752C215.993 153.17 215.996 152.545 215.817 151.961C215.638 151.377 215.285 150.861 214.805 150.482C214.326 150.104 213.742 149.88 213.133 149.841C212.523 149.802 211.916 149.95 211.392 150.264V150.264Z" fill="black"/>
<path d="M219.2 114.953C223.664 129.625 225.856 135.753 221.584 146.121C215.184 161.753 196.72 164.873 188.096 152.041C180.352 140.473 174.352 118.441 185.824 106.825C188.2 104.246 191.223 102.351 194.579 101.336C197.935 100.321 201.501 100.223 204.908 101.053C208.314 101.882 211.436 103.609 213.95 106.053C216.463 108.498 218.276 111.571 219.2 114.953Z" fill="#B55B52"/>
<path opacity="0.4" d="M203.6 106.329C199.84 116.345 208.752 128.809 221.504 127.849C227.44 116.505 223.84 107.833 220.672 104.297C217.504 100.761 207.904 100.153 203.6 106.329Z" fill="#263238"/>
<path d="M220.592 106.233C218.88 118.377 179.456 110.857 177.312 123.033C177.216 107.129 194.992 85.8807 220.592 106.233Z" fill="#263238"/>
<path d="M199.84 129.929C200.256 131.145 200 132.393 199.248 132.713C198.496 133.033 197.536 132.313 197.104 131.113C196.672 129.913 196.944 128.649 197.696 128.313C198.448 127.977 199.408 128.729 199.84 129.929Z" fill="#263238"/>
<path d="M185.056 134.553C185.488 135.769 185.232 137.017 184.48 137.337C183.728 137.657 182.768 136.937 182.336 135.737C181.904 134.537 182.176 133.273 182.928 132.953C183.68 132.633 184.64 133.337 185.056 134.553Z" fill="#263238"/>
<path d="M183.28 132.856L180.224 133.208C180.224 133.208 182.4 134.872 183.28 132.856Z" fill="#263238"/>
<path d="M189.2 133.865C189.15 137.084 188.687 140.283 187.824 143.385C188.582 143.569 189.373 143.579 190.135 143.413C190.897 143.246 191.612 142.908 192.224 142.425L189.2 133.865Z" fill="#A02724"/>
<path d="M196.064 146.425C195.407 146.697 194.727 146.911 194.032 147.065C193.986 147.076 193.937 147.078 193.89 147.069C193.843 147.061 193.798 147.042 193.759 147.015C193.719 146.988 193.686 146.952 193.662 146.911C193.637 146.87 193.621 146.824 193.616 146.777C193.601 146.677 193.624 146.576 193.681 146.493C193.737 146.41 193.822 146.352 193.92 146.329C195.486 145.984 196.955 145.292 198.218 144.303C199.481 143.314 200.506 142.054 201.216 140.617C201.227 140.564 201.25 140.515 201.282 140.472C201.315 140.429 201.356 140.394 201.403 140.369C201.451 140.343 201.503 140.329 201.557 140.326C201.611 140.323 201.664 140.332 201.714 140.353C201.764 140.373 201.808 140.404 201.845 140.443C201.882 140.482 201.909 140.529 201.926 140.58C201.942 140.631 201.948 140.685 201.941 140.738C201.935 140.792 201.916 140.843 201.888 140.889C200.698 143.391 198.623 145.363 196.064 146.425V146.425Z" fill="#263238"/>
<path d="M228.528 127.561C228.615 129.03 228.392 130.502 227.874 131.88C227.356 133.258 226.554 134.512 225.52 135.561C222.864 138.025 219.632 135.193 218.768 131.097C218 127.417 218.448 121.689 221.968 120.857C225.488 120.025 228.432 123.609 228.528 127.561Z" fill="#B55B52"/>
<path d="M199.536 122.936C199.442 122.955 199.344 122.954 199.25 122.932C199.156 122.91 199.068 122.868 198.992 122.808C198.278 122.238 197.433 121.855 196.533 121.693C195.634 121.531 194.708 121.595 193.84 121.88C193.752 121.918 193.658 121.937 193.562 121.935C193.467 121.934 193.373 121.911 193.286 121.871C193.2 121.83 193.124 121.771 193.062 121.698C193 121.625 192.954 121.54 192.928 121.448C192.869 121.255 192.883 121.046 192.969 120.863C193.055 120.68 193.205 120.535 193.392 120.456C194.483 120.082 195.651 119.987 196.788 120.18C197.926 120.373 198.997 120.848 199.904 121.56C200.06 121.689 200.159 121.873 200.18 122.073C200.201 122.274 200.142 122.475 200.016 122.632C199.895 122.785 199.726 122.892 199.536 122.936V122.936Z" fill="#263238"/>
<path d="M178.32 130.473C178.146 130.544 177.95 130.544 177.776 130.473C177.685 130.437 177.603 130.384 177.533 130.317C177.462 130.249 177.406 130.169 177.368 130.079C177.329 129.99 177.309 129.894 177.307 129.797C177.306 129.699 177.324 129.603 177.36 129.513C177.745 128.364 178.386 127.318 179.234 126.453C180.082 125.589 181.115 124.928 182.256 124.521C182.35 124.497 182.447 124.493 182.543 124.509C182.638 124.525 182.729 124.56 182.81 124.613C182.891 124.665 182.96 124.734 183.014 124.814C183.067 124.895 183.103 124.985 183.12 125.081C183.157 125.277 183.12 125.48 183.016 125.651C182.913 125.822 182.751 125.949 182.56 126.009C181.657 126.333 180.84 126.861 180.174 127.552C179.508 128.243 179.011 129.078 178.72 129.993C178.689 130.095 178.638 130.191 178.569 130.273C178.5 130.356 178.416 130.423 178.32 130.473V130.473Z" fill="#263238"/>
<path d="M198.048 128.249L194.992 128.585C194.992 128.585 197.216 130.329 198.048 128.249Z" fill="#263238"/>
<path d="M246.064 203.641C246.064 204.489 246.064 204.889 246.064 205.465V207.065C246.064 208.089 245.92 209.097 245.808 210.105C245.592 212.104 245.272 214.091 244.848 216.057C244.014 220.066 242.742 223.972 241.056 227.705C239.322 231.613 237.049 235.259 234.304 238.537C231.49 241.924 228.139 244.826 224.384 247.129L223.808 247.481C223.308 247.776 222.77 248.002 222.208 248.153C219.49 248.937 216.606 248.937 213.888 248.153C212.087 247.644 210.348 246.936 208.704 246.041C206.05 244.551 203.552 242.798 201.248 240.809C199.127 238.985 197.118 237.035 195.232 234.969C193.366 232.938 191.619 230.801 190 228.569C189.291 227.674 188.924 226.557 188.964 225.416C189.004 224.276 189.45 223.187 190.22 222.345C190.991 221.503 192.036 220.963 193.169 220.823C194.301 220.682 195.447 220.949 196.4 221.577L196.576 221.689L202.976 225.449C205.104 226.665 207.232 227.865 209.376 228.905C211.285 229.895 213.27 230.729 215.312 231.401C215.996 231.645 216.714 231.78 217.44 231.801C217.904 231.801 217.872 231.513 216.768 231.801L214.672 232.825C216.643 231.256 218.374 229.407 219.808 227.337C220.559 226.28 221.227 225.167 221.808 224.009C222.448 222.826 223.009 221.602 223.488 220.345C224.496 217.719 225.272 215.01 225.808 212.249C226.096 210.841 226.304 209.417 226.496 207.993C226.576 207.273 226.656 206.569 226.72 205.865L226.848 204.089V203.241C226.92 200.694 228.001 198.281 229.852 196.532C231.704 194.783 234.174 193.84 236.72 193.913C239.266 193.985 241.679 195.065 243.429 196.917C245.178 198.768 246.12 201.238 246.048 203.785L246.064 203.641Z" fill="#B55B52"/>
<path d="M186.128 236.217H151.472C149.93 236.24 148.423 235.755 147.185 234.835C145.947 233.915 145.047 232.612 144.624 231.129L140.384 209.145C139.84 206.361 141.984 204.105 145.28 204.105H179.92C181.457 204.072 182.962 204.549 184.201 205.461C185.439 206.372 186.342 207.667 186.768 209.145L191.024 231.129C191.552 233.961 189.36 236.217 186.128 236.217Z" fill="#407BFF"/>
<path d="M185.056 234.792H151.456C150.276 234.82 149.118 234.463 148.157 233.777C147.197 233.09 146.485 232.11 146.128 230.984L141.984 209.592C141.907 209.227 141.913 208.849 142.002 208.486C142.091 208.123 142.259 207.785 142.496 207.496C142.868 207.097 143.323 206.784 143.829 206.579C144.334 206.374 144.879 206.283 145.424 206.312H179.024C180.202 206.289 181.355 206.645 182.315 207.328C183.274 208.011 183.988 208.984 184.352 210.104L188.48 231.496C188.564 231.86 188.563 232.239 188.477 232.602C188.391 232.966 188.222 233.305 187.984 233.592C187.613 233.993 187.158 234.308 186.653 234.515C186.147 234.723 185.602 234.817 185.056 234.792V234.792ZM145.344 206.712C144.857 206.685 144.371 206.764 143.918 206.943C143.465 207.123 143.056 207.399 142.72 207.752C142.522 207.999 142.383 208.286 142.311 208.593C142.239 208.901 142.236 209.22 142.304 209.528L146.432 230.904C146.781 231.929 147.45 232.815 148.34 233.431C149.23 234.048 150.294 234.362 151.376 234.328H184.976C185.462 234.357 185.948 234.277 186.399 234.094C186.85 233.912 187.255 233.631 187.584 233.272C187.787 233.032 187.932 232.749 188.007 232.443C188.082 232.138 188.085 231.819 188.016 231.512L184 210.184C183.663 209.152 183 208.256 182.112 207.63C181.224 207.005 180.158 206.683 179.072 206.712H145.344Z" fill="white"/>
<path d="M186.864 215.256L182.8 214.232C182.303 214.109 181.786 214.086 181.28 214.164C180.774 214.243 180.288 214.421 179.852 214.689C179.416 214.957 179.037 215.31 178.738 215.726C178.439 216.142 178.227 216.613 178.112 217.112L177.056 221.736C176.853 222.626 176.973 223.559 177.395 224.369C177.817 225.178 178.514 225.81 179.36 226.152L184.512 228.264C184.512 228.264 193.136 233.592 196.72 229.48L198.32 222.888L191.92 217.704C190.437 216.524 188.71 215.688 186.864 215.256Z" fill="#B55B52"/>
<path d="M236.96 169.944C250.992 170.776 255.312 185.416 250.64 212.04C248.368 222.04 220.336 208.376 220.336 208.376C220.336 208.376 219.36 179.928 236.96 169.944Z" fill="#263238"/>
<path d="M633.408 454.265C628.304 422.265 642.288 380.297 660.016 383.385C674.704 385.945 636.448 444.489 633.408 454.265Z" fill="#407BFF"/>
<path d="M627.824 470.585C644.496 446.889 634.224 398.185 616.624 397.081C599.024 395.977 626.384 458.665 627.824 470.585Z" fill="#263238"/>
<path d="M628.656 484.456C626.752 433.256 657.936 407.512 671.856 413.624C686.176 419.928 639.552 456.12 628.656 484.456Z" fill="#407BFF"/>
<path d="M624.464 516.345C641.136 480.297 626.848 423.961 600.336 430.057C578.352 435.113 620.528 501.177 624.464 516.345Z" fill="#407BFF"/>
<path d="M625.6 527.129C623.76 492.569 613.28 448.505 591.744 452.585C571.2 456.425 619.2 496.905 625.6 527.129Z" fill="#263238"/>
<path d="M620.32 544.04C625.6 493.048 669.248 464.584 668.8 483.928C668.336 504.584 634.992 518.04 620.32 544.04Z" fill="#407BFF"/>
<path d="M624.56 533.241C630.688 515.001 616.288 490.233 601.168 495.529C588.64 499.929 620.624 526.585 624.56 533.241Z" fill="#407BFF"/>
<path d="M624.96 526.424C618.368 487.32 652.064 420.024 682.464 434.488C712 448.552 639.36 481.496 624.96 526.424Z" fill="#263238"/>
<path d="M640 585.448H610.88C608.338 585.454 605.861 584.641 603.816 583.132C601.771 581.622 600.265 579.495 599.52 577.064C595.713 565.43 593.97 553.219 594.368 540.984C594.572 537.127 595.107 533.294 595.968 529.528C596.134 528.776 596.551 528.102 597.15 527.617C597.748 527.132 598.494 526.864 599.264 526.856H651.696C652.465 526.861 653.21 527.129 653.807 527.615C654.403 528.101 654.816 528.776 654.976 529.528C655.837 533.294 656.372 537.127 656.576 540.984C656.972 553.218 655.234 565.427 651.44 577.064C650.687 579.506 649.168 581.639 647.107 583.149C645.047 584.66 642.555 585.466 640 585.448Z" fill="#407BFF"/>
<path opacity="0.5" d="M656.48 540.984H594.368C594.572 537.127 595.107 533.294 595.968 529.528C596.134 528.776 596.551 528.102 597.149 527.617C597.748 527.132 598.493 526.864 599.264 526.856H651.696C652.465 526.861 653.21 527.129 653.806 527.615C654.403 528.101 654.816 528.776 654.976 529.528C655.805 533.297 656.308 537.13 656.48 540.984V540.984Z" fill="white"/>
</svg>
