<svg width="18" height="20" viewBox="0 0 18 20" fill="none" xmlns="http://www.w3.org/2000/svg">
<path d="M6.49938 17.5H10.4994C10.4994 18.5 9.78238 19.5 8.49938 19.5C7.21638 19.5 6.49938 18.5 6.49938 17.5ZM16.7414 13.2749L15.6354 11.429C15.2164 10.73 14.9954 9.92994 14.9954 9.11694V6.48999C14.9954 2.91099 12.0814 0 8.50038 0C4.91938 0 2.00537 2.91099 2.00537 6.48999V9.11694C2.00537 9.92994 1.78437 10.73 1.36537 11.429L0.259371 13.2749C-0.0786288 13.8369 -0.0866167 14.5149 0.237383 15.0869C0.561383 15.6589 1.14737 16 1.80437 16H15.1984C15.8564 16 16.4424 15.6579 16.7664 15.0869C17.0874 14.5159 17.0794 13.8379 16.7414 13.2749Z" fill="#5C5451"/>
</svg>
