<svg width="44" height="44" viewBox="0 0 44 44" fill="none" xmlns="http://www.w3.org/2000/svg">
<path d="M31.28 22.5301L24.28 29.5301C24.134 29.6761 23.942 29.75 23.75 29.75C23.558 29.75 23.366 29.6771 23.22 29.5301C22.927 29.2371 22.927 28.762 23.22 28.469L28.94 22.749H12.75C12.336 22.749 12 22.413 12 21.999C12 21.585 12.336 21.249 12.75 21.249H28.939L23.219 15.529C22.926 15.236 22.926 14.761 23.219 14.468C23.512 14.175 23.987 14.175 24.28 14.468L31.28 21.468C31.573 21.763 31.573 22.2371 31.28 22.5301Z" fill="#B9B9B9"/>
<circle cx="22" cy="22" r="21.25" stroke="#B9B9B9" stroke-width="1.5"/>
</svg>
