<svg width="44" height="44" viewBox="0 0 44 44" fill="none" xmlns="http://www.w3.org/2000/svg">
<path d="M31.5 22C31.5 22.414 31.164 22.75 30.75 22.75H14.5609L20.281 28.47C20.574 28.763 20.574 29.238 20.281 29.531C20.135 29.677 19.9429 29.751 19.7509 29.751C19.5589 29.751 19.367 29.678 19.221 29.531L12.221 22.531C11.928 22.238 11.928 21.763 12.221 21.47L19.221 14.47C19.514 14.177 19.9889 14.177 20.2819 14.47C20.5749 14.763 20.5749 15.238 20.2819 15.531L14.562 21.251H30.75C31.164 21.25 31.5 21.586 31.5 22Z" fill="#B9B9B9"/>
<circle cx="22" cy="22" r="21.25" stroke="#B9B9B9" stroke-width="1.5"/>
</svg>
