<svg width="22" height="23" viewBox="0 0 22 23" fill="none" xmlns="http://www.w3.org/2000/svg">
<path d="M21.7981 9.18691H11.2239V13.5331H17.2646C17.0041 14.9379 16.2139 16.1261 15.0227 16.9222C14.016 17.5953 12.7311 17.9933 11.221 17.9933C8.29719 17.9933 5.82413 16.0178 4.94027 13.3633C4.71784 12.6902 4.58906 11.9702 4.58906 11.2297C4.58906 10.4893 4.71784 9.76932 4.94027 9.09618C5.82706 6.44459 8.30012 4.46907 11.2239 4.46907C12.8716 4.46907 14.3496 5.03685 15.5144 6.149L18.7338 2.9267C16.7875 1.11215 14.2501 0 11.2239 0C6.83677 0 3.04084 2.51696 1.19409 6.18704C0.433152 7.70307 0 9.41812 0 11.2327C0 13.0472 0.433152 14.7593 1.19409 16.2754C3.04084 19.9455 6.83677 22.4624 11.2239 22.4624C14.256 22.4624 16.7963 21.4556 18.6519 19.7406C20.7737 17.7856 22 14.9057 22 11.4844C22 10.6883 21.9298 9.92444 21.7981 9.18691Z" fill="white"/>
</svg>
