<svg width="26" height="26" viewBox="0 0 26 26" fill="none" xmlns="http://www.w3.org/2000/svg">
<path d="M9.41182 14.5576C8.80777 13.5677 8.99905 12.3993 9.1702 11.9389C9.29101 12.0348 9.68968 12.3821 10.3179 13.0037C11.1032 13.7806 12.0394 13.9821 12.0998 13.9821C12.1602 13.9821 12.4321 14.0972 13.0059 13.8382C13.5798 13.5792 13.9422 13.1188 14.3046 12.3706C14.5946 11.772 14.0227 10.9893 13.7006 10.6727L12.1602 9.1188C12.4522 9.07084 13.1811 8.98067 13.761 9.0037C14.3409 9.02672 15.2409 9.4929 15.6335 9.78067C16.1168 10.1348 16.9624 11.1907 17.1436 11.795C17.3812 12.5874 17.2342 13.09 17.2342 13.2914C17.2342 13.4929 17.1208 14.7698 17 15C16.9034 15.1842 17.0403 15.4412 17.1208 15.5468L22.8053 20.2806C22.9362 20.4149 23.2584 20.7468 23.5 21C23.7416 21.2532 23.7215 21.6427 23.6812 21.8057C23.6812 21.8057 23.7048 22.3639 23.1008 22.7553C22.4967 23.1466 21.9229 22.8416 21.7114 22.6402C20.5335 21.5371 15.7664 17.1842 15.5731 17C15.5317 16.9605 15.3359 16.7986 14.9993 16.7986C14.9023 16.7986 14.605 16.9285 14.3046 17C14.0227 17.0671 12.9032 16.9058 12.13 16.7446C11.1636 16.5432 10.1669 15.795 9.41182 14.5576Z" stroke="#312C2A" stroke-width="1.5"/>
<path d="M18.5901 9.44348C15.5832 5.25086 11.2311 6.33784 9.43082 7.4054C7.93468 8.24248 7.05891 9.95299 6.83997 10.4625C6.62102 10.972 6.36558 12.3186 6.36558 12.9009C6.36558 13.3668 6.48722 14.2111 6.54804 14.5751C6.60886 14.9026 6.88376 15.7834 7.49681 16.6859C8.10986 17.5885 8.84698 18.2024 9.1389 18.3965C9.55247 18.6391 10.4745 19.1535 10.854 19.2699C11.2335 19.3864 12.2528 19.5126 12.715 19.5611C12.9583 19.5611 13.5105 19.5465 13.7733 19.4883C14.1017 19.4155 14.6126 19.3791 14.7585 19.4155C14.8753 19.4446 15.0748 19.5975 15.1599 19.6703L16.1452 20.5801C16.1695 20.5801 16.189 20.5947 16.0722 20.6529C15.9262 20.7257 15.4884 21.1624 15.4154 21.2716C15.3424 21.3808 15.2329 21.8175 15.2329 21.9995V23.2369C15.2329 23.3582 15.2183 23.6372 15.1599 23.7828C15.087 23.9648 14.795 24.4379 14.6856 24.5471C14.5761 24.6563 13.7733 24.9838 13.5178 24.9838C13.2624 24.9838 13.0435 25.0202 12.5326 24.9838C12.0346 24.9484 11.7447 24.7746 11.5614 24.6647L11.5473 24.6563C11.3649 24.5471 11.1459 24.2559 10.927 23.8556C10.7518 23.5353 10.6837 23.1156 10.6715 22.9457C10.6837 22.7516 10.708 22.3562 10.708 22.327C10.708 22.2906 10.708 21.9267 10.6715 21.5992C10.635 21.2716 10.3431 20.9805 10.2336 20.8713C10.1242 20.7621 9.64978 20.5073 9.24838 20.4709C8.92726 20.4418 8.55505 20.6286 8.40908 20.7257L6.94944 22.0723C6.8278 22.1572 6.46776 22.327 6.00067 22.327C5.53358 22.327 5.17354 22.0602 5.0519 21.9267C4.83296 21.7083 4.32938 21.2134 4.06664 20.9805C3.73822 20.6893 3.59226 20.2526 3.59226 20.0706C3.59226 19.8886 3.59226 19.7067 3.66524 19.3791C3.73822 19.0516 4.06664 18.6876 4.46804 18.3237C4.86945 17.9597 5.23436 17.4866 5.38032 17.1227C5.52629 16.7587 5.4533 16.4312 5.38032 16.2128C5.30734 15.9944 5.0519 15.7397 4.83296 15.4849C4.6578 15.2811 4.20044 15.2059 3.99366 15.1938H2.97191C2.70917 15.1938 2.30291 15.0967 2.13261 15.0482C2.0353 15.0361 1.7531 14.9317 1.40279 14.6115C1.05247 14.2912 0.989214 13.8714 1.00138 13.7016V12.537C0.989211 12.3065 1.06706 11.729 1.47576 11.2632C1.88446 10.7973 2.4002 10.7051 2.60698 10.7173H3.55575C3.79903 10.7173 4.32936 10.7027 4.50452 10.6445C4.72347 10.5717 5.0154 10.3533 5.23434 10.0258C5.45329 9.69823 5.52627 9.18871 5.48978 8.97035C5.45329 8.75198 5.30732 8.49722 5.12487 8.27885C4.94241 8.06049 4.13961 7.29621 3.92066 7.00505C3.70172 6.7139 3.66523 6.42275 3.62874 6.0588C3.59225 5.69486 3.73821 5.4401 3.81119 5.33092C3.88418 5.22174 4.10312 4.93058 4.28558 4.71222C4.43154 4.53752 4.75996 4.22696 4.90593 4.09351C5.00324 4.02072 5.24165 3.85331 5.4168 3.76596C5.63575 3.65678 5.81821 3.58399 6.18312 3.62039C6.62101 3.6495 6.99809 3.87515 7.13189 3.98433C7.52112 4.3604 8.34339 5.14167 8.51855 5.25813C8.73749 5.40371 9.24837 5.62207 9.83223 5.29452C10.708 4.85779 10.7445 4.34827 10.7445 4.27548C10.7445 4.2027 10.781 2.81971 10.781 2.49217C10.781 2.16462 10.9999 1.80067 11.3284 1.47313C11.5911 1.21109 12.192 1.04853 12.4596 1H13.5178C13.7489 1.01213 14.306 1.10918 14.6855 1.40034C15.0651 1.69149 15.2329 2.24954 15.2694 2.49217V4.09351C15.2816 4.28762 15.3862 4.75589 15.7073 5.07616C16.4736 5.62207 16.802 5.51289 17.2034 5.4401C17.5246 5.38187 17.7751 5.12468 17.8603 5.00337C18.1279 4.72435 18.6777 4.15174 18.7361 4.09351C18.809 4.02072 19.4294 3.72957 19.7578 3.69318C20.0205 3.66406 20.4755 3.80236 20.6701 3.87515C20.889 4.02073 21.3999 4.38467 21.6918 4.67583C21.9838 4.96698 22.2514 5.50076 22.3487 5.73126C22.3852 5.93749 22.429 6.40091 22.3122 6.60472C22.1662 6.85948 21.7648 7.4054 21.6189 7.58737C21.4729 7.76934 20.8525 8.38804 20.7796 8.49722C20.7066 8.60641 20.4146 9.11593 20.5606 9.66184C20.8233 10.448 21.5459 10.7415 21.8743 10.7901L23.5894 10.8265C23.7962 10.875 24.2608 11.023 24.4652 11.2268C24.7206 11.4816 24.9395 11.9547 24.976 12.173C25.0125 12.3914 25.0125 13.738 24.9395 13.9564C24.8666 14.1747 24.7571 14.5387 24.5746 14.6842C24.4652 14.7934 24.2462 15.0846 23.6988 15.1938C23.5821 15.2229 22.4338 15.2544 21.8743 15.2666C21.3196 15.383 20.816 15.8246 20.6336 16.0308C19.9403 15.4849 19.7578 15.2302 19.5753 14.8298C19.3929 14.4295 19.3929 14.0655 19.4659 13.5924C19.5389 13.1193 19.7943 11.2268 18.5901 9.44348Z" stroke="#312C2A" stroke-width="1.5"/>
</svg>
