<svg width="154" height="55" viewBox="0 0 154 55" fill="none" xmlns="http://www.w3.org/2000/svg">
<path d="M44.1575 49.8314C42.3087 48.9453 40.537 47.9067 38.8607 46.7264C36.6223 45.1686 33.1706 42.7273 29.7274 38.5063C28.0196 36.4137 25.257 33.0255 23.5492 27.9379C21.6976 22.3958 21.389 15.7758 21.389 15.7906C21.3788 24.1722 23.9809 32.3486 28.8334 39.1827C31.2806 42.6498 34.2703 45.7001 37.6876 48.2165C38.6429 48.9204 39.6385 49.5778 40.6594 50.1928C36.7575 50.0843 32.8543 50.0139 28.9496 49.9815C26.0215 49.9603 23.0926 49.9667 20.163 50.0005L18.9815 49.9899H18.5186C18.3643 49.9899 18.1994 49.9899 18.0768 49.9899C17.8105 49.9772 17.5421 49.9899 17.2779 49.954C17.0137 49.9181 16.7473 49.9159 16.4852 49.8758C16.2231 49.8356 15.9589 49.8018 15.699 49.7511C14.6552 49.5582 13.6384 49.241 12.6701 48.8063C10.7182 47.9417 8.99125 46.6399 7.62259 45.0016C6.25828 43.3613 5.28664 41.4311 4.7818 39.3581C4.28695 37.2693 4.27249 35.0954 4.73953 33.0002C4.97386 31.9518 5.33367 30.9356 5.81116 29.9734C6.28046 29.0001 6.86293 28.0856 7.54649 27.2488C9.63015 24.6767 12.5451 22.9113 15.7898 22.2563C16.3324 22.1446 16.8807 22.0628 17.4322 22.0111L18.2776 21.9604L19.2055 21.9308L20.8965 21.878L20.8479 20.2948C20.7889 18.5082 20.9781 16.722 21.4101 14.9874C21.4101 15.2474 21.3974 15.5095 21.3995 15.7694C21.3995 15.4925 21.4101 15.2178 21.4186 14.943C21.5787 14.3044 21.7734 13.675 22.0019 13.0576C22.8669 10.7031 24.174 8.53567 25.8531 6.67216C27.577 4.77811 29.644 3.22755 31.9447 2.10238C34.3108 0.95971 36.869 0.267318 39.4884 0.0605672C36.7918 -0.152341 34.0804 0.197471 31.5262 1.08782C28.9063 1.9954 26.4996 3.42893 24.4538 5.30038C22.3631 7.18868 20.6775 9.48185 19.4994 12.0409C18.5438 14.1288 17.9307 16.357 17.6837 18.6398H17.261C16.5755 18.6586 15.8917 18.7165 15.2128 18.8131C13.8465 19.0078 12.5077 19.3625 11.2243 19.87C9.9372 20.3888 8.71269 21.051 7.57397 21.8442C6.43826 22.6516 5.39862 23.5863 4.47532 24.63C2.60676 26.7368 1.26832 29.2593 0.57135 31.9877C0.222941 33.3529 0.03217 34.7536 0.00277012 36.1622C-0.0723167 40.4517 1.38121 44.6279 4.10331 47.9439C5.91645 50.1352 8.21674 51.8724 10.8206 53.0167C12.1184 53.5903 13.4801 54.0068 14.8767 54.2574C15.2255 54.323 15.5742 54.3779 15.9336 54.416C16.2929 54.454 16.6353 54.4921 16.9904 54.5153C17.3455 54.5386 17.6964 54.5449 18.0473 54.5555H18.9984L20.1821 54.5449C23.1095 54.5724 26.0391 54.5851 28.9665 54.5639C35.855 54.5238 50.2597 54.5639 50.2597 54.5639C50.2766 54.5787 45.9436 50.6917 44.1575 49.8314Z" fill="#3AB4F2"/>
<path d="M69.4457 27.1516C69.4457 28.1573 69.0462 29.1218 68.3351 29.8329C67.624 30.5441 66.6595 30.9436 65.6538 30.9436H45.2483C45.1996 30.9436 45.1528 30.9242 45.1183 30.8897C45.0838 30.8552 45.0645 30.8085 45.0645 30.7597V27.1516C45.0645 27.1029 45.0838 27.0561 45.1183 27.0216C45.1528 26.9871 45.1996 26.9677 45.2483 26.9677H69.2597C69.2841 26.9675 69.3082 26.972 69.3308 26.9811C69.3533 26.9902 69.3738 27.0037 69.3911 27.0208C69.4084 27.038 69.4222 27.0583 69.4316 27.0808C69.4409 27.1032 69.4457 27.1273 69.4457 27.1516ZM49.2263 50.5606H66.0977C66.9853 50.5606 67.8366 50.9131 68.4644 51.5405C69.0922 52.1679 69.4452 53.019 69.4457 53.9066V54.3526C69.4457 54.3769 69.4409 54.401 69.4316 54.4234C69.4222 54.4459 69.4084 54.4663 69.3911 54.4834C69.3738 54.5005 69.3533 54.514 69.3308 54.5231C69.3082 54.5322 69.2841 54.5367 69.2597 54.5365H45.2483C45.1996 54.5365 45.1528 54.5171 45.1183 54.4826C45.0838 54.4481 45.0645 54.4014 45.0645 54.3526V33.1164C45.0645 33.0677 45.0838 33.0209 45.1183 32.9864C45.1528 32.9519 45.1996 32.9325 45.2483 32.9325H48.867C48.9157 32.9325 48.9625 32.9519 48.997 32.9864C49.0315 33.0209 49.0509 33.0677 49.0509 33.1164V37.5869C49.0509 37.6112 49.0557 37.6353 49.0651 37.6577C49.0744 37.6802 49.0882 37.7005 49.1055 37.7177C49.1228 37.7348 49.1433 37.7483 49.1658 37.7574C49.1884 37.7665 49.2125 37.771 49.2369 37.7708H66.6007C66.6495 37.7708 66.6963 37.7901 66.7308 37.8246C66.7653 37.8591 66.7846 37.9059 66.7846 37.9546V38.4006C66.7846 39.2886 66.4319 40.1402 65.804 40.7681C65.1761 41.396 64.3245 41.7487 63.4366 41.7487H57.6747C55.3851 41.7487 53.1892 42.6581 51.57 44.2769C49.9508 45.8957 49.0408 48.0914 49.0403 50.381C49.0414 50.4294 49.0616 50.4754 49.0964 50.509C49.1312 50.5427 49.1779 50.5612 49.2263 50.5606Z" fill="#3AB4F2"/>
<path d="M98.2784 40.8059C98.281 44.1809 97.0485 47.4402 94.8136 49.9691C92.5786 52.4981 89.4956 54.1218 86.1459 54.5342H73.635C73.586 54.5342 73.539 54.5149 73.5042 54.4805C73.4694 54.4461 73.4495 54.3993 73.449 54.3503V33.129C73.4495 33.08 73.4694 33.0333 73.5042 32.9988C73.539 32.9644 73.586 32.9451 73.635 32.9451H74.0789C74.9668 32.9451 75.8184 33.2978 76.4463 33.9257C77.0742 34.5536 77.4269 35.4052 77.4269 36.2932V50.3745C77.4266 50.3988 77.4312 50.423 77.4403 50.4455C77.4494 50.4681 77.4629 50.4886 77.48 50.5059C77.4971 50.5232 77.5175 50.5369 77.5399 50.5463C77.5624 50.5557 77.5865 50.5605 77.6108 50.5605H85.8816C87.876 50.2642 89.7322 49.3652 91.2011 47.9839C92.6699 46.6027 93.6814 44.8053 94.0996 42.8329C94.2389 42.1662 94.3097 41.487 94.311 40.8059C94.3076 38.2669 93.3262 35.8268 91.5707 33.9925C89.8151 32.1583 87.4204 31.0708 84.884 30.9561H76.797C75.9095 30.9561 75.0582 30.6037 74.4304 29.9762C73.8025 29.3488 73.4495 28.4978 73.449 27.6102V27.1494C73.4495 27.1004 73.4694 27.0537 73.5042 27.0192C73.539 26.9848 73.586 26.9655 73.635 26.9655H84.6008C88.2426 27.0061 91.7214 28.4817 94.2818 31.0718C96.8422 33.6619 98.2776 37.1575 98.2763 40.7995L98.2784 40.8059Z" fill="#3AB4F2"/>
<path d="M110.164 34.2621L111.73 37.1176C112.002 37.6122 112.145 38.1678 112.145 38.7325C112.145 39.2972 112.002 39.8527 111.73 40.3473L103.93 54.4414C103.914 54.4701 103.891 54.4941 103.863 54.5108C103.835 54.5275 103.803 54.5364 103.77 54.5365H98.9251C98.8929 54.537 98.8612 54.5291 98.8331 54.5133C98.805 54.4976 98.7816 54.4747 98.7653 54.447C98.7489 54.4193 98.7403 54.3877 98.7401 54.3555C98.74 54.3233 98.7484 54.2917 98.7645 54.2638L109.834 34.2621C109.85 34.2319 109.873 34.2067 109.902 34.1891C109.931 34.1715 109.965 34.1622 109.999 34.1622C110.033 34.1622 110.066 34.1715 110.095 34.1891C110.124 34.2067 110.148 34.2319 110.164 34.2621ZM128.935 54.5365H124.095C124.062 54.5364 124.03 54.5275 124.002 54.5108C123.973 54.4941 123.95 54.4701 123.934 54.4414L113.926 36.3567L112.197 33.2327C111.922 32.7368 111.779 32.1793 111.779 31.6126C111.779 31.0458 111.922 30.4883 112.197 29.9924L113.924 26.8705L116.551 31.6178L129.089 54.2638C129.105 54.2918 129.113 54.3233 129.112 54.3552C129.112 54.3871 129.103 54.4184 129.087 54.4459C129.071 54.4734 129.048 54.4963 129.02 54.5121C128.992 54.528 128.961 54.5364 128.929 54.5365H128.935Z" fill="#3AB4F2"/>
<path d="M147.227 41.6388L147.282 41.6874H136.009C135.96 41.6879 135.914 41.7078 135.879 41.7426C135.845 41.7774 135.825 41.8244 135.825 41.8734V54.3441C135.825 54.3928 135.806 54.4396 135.772 54.4741C135.737 54.5086 135.69 54.528 135.642 54.528H132.033C131.985 54.528 131.938 54.5086 131.903 54.4741C131.869 54.4396 131.85 54.3928 131.85 54.3441V30.32C131.85 29.4324 132.202 28.5811 132.829 27.9533C133.457 27.3255 134.308 26.9725 135.196 26.9719H147.051V26.9825C148.912 27.083 150.665 27.887 151.955 29.2314C153.245 30.5759 153.976 32.3605 153.999 34.2236C154.023 36.0868 153.338 37.8893 152.082 39.2661C150.827 40.6429 149.095 41.491 147.237 41.6388H147.227ZM149.854 33.2559C149.632 32.577 149.198 31.9871 148.617 31.5722C148.035 31.1573 147.336 30.9392 146.622 30.9499C146.548 30.9499 146.476 30.9499 146.411 30.9499C146.393 30.9477 146.375 30.9477 146.358 30.9499H136.009C135.961 30.9499 135.914 30.9692 135.879 31.0037C135.845 31.0382 135.825 31.085 135.825 31.1338V37.4917C135.825 37.5405 135.845 37.5873 135.879 37.6217C135.914 37.6562 135.961 37.6756 136.009 37.6756H146.647C147.18 37.6737 147.704 37.5463 148.177 37.3037C148.651 37.0611 149.06 36.7103 149.373 36.2797C149.685 35.849 149.891 35.3508 149.975 34.8254C150.059 34.3 150.017 33.7622 149.854 33.2559Z" fill="#3AB4F2"/>
<path d="M31.3824 31.4403L30.7187 31.0535C30.6278 30.9986 30.5411 30.9309 30.4481 30.8781C30.4099 30.8602 30.3804 30.828 30.3657 30.7884C30.3511 30.7489 30.3526 30.7052 30.3699 30.6667C30.4523 30.3771 30.5305 30.0855 30.6109 29.7938C30.6658 29.5972 30.6658 29.5972 30.4925 29.4598L29.9049 28.9208L29.1588 29.1512C29.0721 29.1745 28.9833 29.1935 28.8988 29.2252C28.8803 29.2352 28.86 29.2412 28.8392 29.243C28.8183 29.2447 28.7973 29.2422 28.7774 29.2354C28.7576 29.2287 28.7393 29.2179 28.7238 29.2038C28.7084 29.1896 28.696 29.1725 28.6874 29.1533C28.5606 28.942 28.4295 28.7538 28.3006 28.553C28.2795 28.5213 28.2541 28.4896 28.2309 28.46L28.0406 28.0606C27.9751 27.9189 27.9751 27.9189 28.0808 27.8111L28.3788 27.5068L28.8016 27.1031C28.8227 27.0847 28.8375 27.0599 28.8436 27.0325C28.8496 27.0051 28.8468 26.9765 28.8354 26.9509C28.7635 26.7057 28.6916 26.4584 28.624 26.209C28.618 26.1701 28.5991 26.1344 28.5703 26.1076C28.5416 26.0807 28.5047 26.0643 28.4655 26.061C28.3091 26.0293 28.1548 25.9934 27.9984 25.9574L27.3981 25.8095C27.3357 25.3281 27.3194 24.8419 27.3495 24.3574C27.3525 24.3208 27.3681 24.2864 27.3934 24.2598C27.4188 24.2333 27.4525 24.2162 27.489 24.2115C27.7976 24.1355 28.104 24.0467 28.4147 23.9748C28.4662 23.9671 28.5135 23.9419 28.5485 23.9034C28.5836 23.8649 28.6043 23.8154 28.6071 23.7634C28.6515 23.5521 28.7085 23.3407 28.772 23.1167C28.791 23.0722 28.7943 23.0226 28.7812 22.9761C28.7682 22.9295 28.7395 22.8889 28.7001 22.8609C28.4676 22.6495 28.2435 22.4382 28.0174 22.2268C27.9096 22.1253 27.9096 22.1211 27.9666 21.9922C28.1458 21.6028 28.358 21.2294 28.6008 20.8762C28.6205 20.8398 28.6529 20.8118 28.6918 20.7974C28.7306 20.783 28.7734 20.7832 28.8121 20.798C28.9389 20.8339 29.0658 20.8614 29.1926 20.8931L29.256 20.9142L29.4314 20.9607C29.535 20.9924 29.6428 21.022 29.74 21.0558C29.7618 21.0665 29.7855 21.0725 29.8097 21.0734C29.8339 21.0744 29.8581 21.0702 29.8806 21.0613C29.9031 21.0523 29.9234 21.0387 29.9404 21.0214C29.9573 21.0041 29.9704 20.9834 29.9789 20.9607L30.1289 20.7958L30.1902 20.7324L30.4523 20.4809C30.5221 20.4429 30.5707 20.4006 30.539 20.3055C30.4397 19.9926 30.3488 19.6714 30.2473 19.3628C30.205 19.2317 30.205 19.1979 30.3149 19.1176C30.6598 18.8672 31.027 18.6493 31.4119 18.4666C31.5493 18.4032 31.5515 18.4032 31.6614 18.5131L32.1369 18.976C32.1919 19.0394 32.2447 19.1028 32.3039 19.162C32.435 19.2972 32.435 19.2951 32.6146 19.2169L33.2847 19.0415C33.3123 19.0373 33.3379 19.0244 33.3577 19.0046C33.3775 18.9848 33.3904 18.9592 33.3946 18.9316C33.4242 18.7984 33.4516 18.6674 33.4791 18.5342L33.625 17.9762C33.6672 17.8134 33.6672 17.8029 33.8215 17.7944C34.1153 17.7754 34.4113 17.7648 34.7072 17.7585C34.8213 17.7585 34.9354 17.7712 35.0475 17.7775C35.2229 17.7775 35.2208 17.7775 35.2588 17.9487C35.2863 18.0523 35.3201 18.1601 35.3497 18.2594C35.4026 18.4708 35.4596 18.6822 35.5083 18.9062C35.5134 18.9367 35.5288 18.9646 35.5518 18.9854C35.5748 19.0061 35.6042 19.0184 35.6351 19.0204C35.8253 19.0584 36.0113 19.1049 36.2015 19.1472L36.2311 19.1641C36.2654 19.1854 36.3035 19.1997 36.3433 19.2063C36.3831 19.2128 36.4239 19.2114 36.4631 19.2022C36.5024 19.193 36.5395 19.1761 36.5722 19.1525C36.6049 19.1289 36.6327 19.0991 36.6539 19.0647C36.8335 18.8534 37.0386 18.642 37.2351 18.4412C37.3345 18.3376 37.3387 18.3376 37.4698 18.3989C37.8596 18.576 38.2324 18.7882 38.5837 19.033C38.6247 19.0696 38.6622 19.1099 38.6957 19.1535C38.5942 19.5086 38.4949 19.8637 38.3913 20.2104C38.3818 20.2427 38.3831 20.2773 38.3949 20.309C38.4067 20.3406 38.4285 20.3675 38.4568 20.3858C38.6154 20.5316 38.7697 20.6838 38.924 20.8339C38.9768 20.8846 39.0233 20.9396 39.074 20.9924L39.2452 20.929L40.0907 20.688C40.2725 20.6352 40.2746 20.631 40.3824 20.7853C40.4902 20.9396 40.5938 21.1171 40.7142 21.282C40.8451 21.5106 40.9602 21.7479 41.0588 21.9922L40.2006 22.8672C40.2788 23.1505 40.3549 23.4295 40.4289 23.7127C40.4344 23.7434 40.4494 23.7715 40.4718 23.7931C40.4941 23.8148 40.5228 23.8288 40.5536 23.8332L41.1349 23.9642C41.2765 24.0002 41.416 24.0403 41.5576 24.0699C41.591 24.0736 41.6218 24.0899 41.6438 24.1154C41.6658 24.1408 41.6772 24.1737 41.676 24.2073C41.676 24.2919 41.6887 24.3743 41.6971 24.4588C41.6971 24.7991 41.6971 25.1416 41.6865 25.4819C41.6865 25.6552 41.6865 25.6573 41.5174 25.6932C41.2089 25.7757 40.9003 25.8581 40.5917 25.9342C40.5528 25.9402 40.5171 25.9591 40.4903 25.9879C40.4634 26.0166 40.447 26.0535 40.4437 26.0927C40.3951 26.321 40.338 26.5472 40.2683 26.7691C40.2491 26.8126 40.2451 26.8613 40.257 26.9073C40.2689 26.9533 40.2959 26.994 40.3338 27.0227C40.5663 27.2341 40.7925 27.4455 41.0186 27.6695C41.1285 27.7752 41.137 27.7816 41.0651 27.9168C40.8981 28.2339 40.7248 28.5509 40.5494 28.8595C40.4937 28.9529 40.433 29.0432 40.3676 29.1301L40.1943 29.0878C39.8963 29.0075 39.6003 28.9293 39.3044 28.8426C39.2621 28.8277 39.2162 28.8266 39.1733 28.8396C39.1303 28.8525 39.0926 28.8787 39.0656 28.9145C38.915 29.0855 38.7556 29.2485 38.5879 29.4027C38.5493 29.4309 38.5214 29.4713 38.5087 29.5174C38.4961 29.5635 38.4994 29.6124 38.5181 29.6564C38.6069 29.9269 38.6872 30.1996 38.7654 30.4744C38.8331 30.7175 38.8775 30.6857 38.6323 30.8422C38.3321 31.0366 38.0193 31.2142 37.7128 31.4002L37.6748 31.4319C37.6524 31.435 37.6304 31.4407 37.6093 31.4488C37.5908 31.464 37.5693 31.475 37.5461 31.481C37.523 31.4871 37.4989 31.488 37.4753 31.4838C37.4518 31.4796 37.4295 31.4703 37.4099 31.4566C37.3903 31.4429 37.374 31.4251 37.362 31.4044C37.3021 31.3382 37.2378 31.276 37.1696 31.2184L37.1379 31.1867C37.1379 31.1698 37.1379 31.1486 37.1252 31.1381C36.9498 30.969 36.7722 30.802 36.5905 30.6308C36.3368 30.7005 36.0705 30.7809 35.7999 30.8422C35.7582 30.8465 35.719 30.8646 35.6888 30.8937C35.6585 30.9228 35.6389 30.9612 35.633 31.0028C35.5759 31.2649 35.5125 31.5249 35.4512 31.7849C35.4279 31.8821 35.3983 31.9793 35.3688 32.0913L34.4958 32.1484L34.1196 32.1294H34.1027C33.8173 32.104 33.8173 32.1019 33.7433 31.8314C33.6884 31.6306 33.6313 31.4298 33.5764 31.229C33.5573 31.1465 33.5404 31.062 33.5214 30.9796C33.517 30.9543 33.5045 30.9312 33.4858 30.9137C33.4671 30.8961 33.4433 30.8851 33.4178 30.8823C33.1578 30.8189 32.9 30.7534 32.64 30.6836C32.6132 30.6741 32.5842 30.6728 32.5567 30.6799C32.5291 30.6871 32.5044 30.7024 32.4857 30.7238C32.4561 30.7576 32.4223 30.7893 32.3906 30.821C32.1792 31.0324 31.9805 31.2438 31.7797 31.4678C31.7687 31.4845 31.7544 31.4989 31.7377 31.51C31.721 31.5211 31.7022 31.5288 31.6825 31.5325C31.6628 31.5363 31.6426 31.536 31.623 31.5318C31.6033 31.5276 31.5848 31.5195 31.5684 31.508C31.5081 31.4809 31.4459 31.4583 31.3824 31.4403ZM33.0289 29.3414C33.0712 29.3562 33.1113 29.3753 33.1557 29.3901C33.8519 29.6032 34.5884 29.6499 35.306 29.5263C36.0235 29.4028 36.702 29.1125 37.2868 28.6788C37.8716 28.2451 38.3464 27.6802 38.673 27.0294C38.9996 26.3787 39.1688 25.6604 39.167 24.9323C39.1833 23.8121 38.7712 22.728 38.0151 21.9013C36.7913 20.5464 35.2673 20.0455 33.4834 20.4217C32.5154 20.639 31.6431 21.1624 30.9959 21.9144C30.3487 22.6663 29.9609 23.6067 29.8901 24.5962C29.8396 25.2037 29.9116 25.8151 30.1019 26.3942C30.2922 26.9734 30.5968 27.5084 30.9977 27.9676C31.3248 28.3646 31.7243 28.696 32.175 28.9441C32.437 29.121 32.7252 29.2558 33.0289 29.3436V29.3414Z" fill="#3AB4F2"/>
<path d="M43.4496 22.9411C43.3016 22.8544 43.1515 22.7699 43.0036 22.6811C42.9423 22.6452 42.8852 22.5987 42.8218 22.5627C42.8087 22.5571 42.7968 22.5488 42.787 22.5384C42.7771 22.5279 42.7695 22.5156 42.7646 22.5022C42.7596 22.4888 42.7575 22.4745 42.7582 22.4602C42.759 22.4459 42.7626 22.4319 42.769 22.419C42.8239 22.2246 42.8768 22.028 42.9317 21.8314C42.9677 21.6982 42.9677 21.6982 42.8514 21.6074L42.4561 21.2501L41.9552 21.4044C41.8959 21.4174 41.8373 21.4337 41.7798 21.4531C41.7673 21.4602 41.7535 21.4646 41.7392 21.4659C41.725 21.4673 41.7106 21.4656 41.697 21.461C41.6834 21.4565 41.6709 21.449 41.6604 21.4393C41.6499 21.4295 41.6416 21.4177 41.636 21.4044C41.5515 21.2692 41.4627 21.136 41.3761 21.0028C41.3613 20.9796 41.3444 20.9606 41.3296 20.9394C41.2873 20.8485 41.2429 20.7598 41.2006 20.671C41.1583 20.5822 41.1583 20.5759 41.2281 20.504L41.4289 20.2926L41.71 20.02C41.724 20.0076 41.7336 19.991 41.7374 19.9728C41.7412 19.9545 41.739 19.9355 41.7312 19.9185C41.6825 19.7537 41.6339 19.5867 41.5959 19.4197C41.5917 19.3934 41.5788 19.3694 41.5592 19.3513C41.5397 19.3333 41.5146 19.3224 41.4881 19.3204L41.1753 19.2506L40.7715 19.1513C40.7289 18.8276 40.7175 18.5006 40.7377 18.1747C40.7391 18.1501 40.7492 18.1268 40.7663 18.109C40.7833 18.0911 40.8062 18.08 40.8307 18.0775C41.0421 18.0247 41.2535 17.9655 41.4648 17.9169C41.4983 17.9119 41.5292 17.8959 41.5525 17.8714C41.5759 17.8469 41.5904 17.8153 41.5938 17.7816C41.6236 17.6353 41.661 17.4907 41.7058 17.3483C41.7175 17.318 41.7191 17.2848 41.7104 17.2535C41.7016 17.2223 41.6829 17.1947 41.6572 17.175C41.5008 17.0334 41.3486 16.8875 41.1964 16.7417C41.1266 16.674 41.1245 16.6719 41.1647 16.5831C41.2835 16.3212 41.425 16.0701 41.5874 15.8328C41.6006 15.8078 41.6227 15.7886 41.6493 15.7792C41.676 15.7698 41.7052 15.7708 41.7312 15.7821C41.8157 15.8053 41.9024 15.8243 41.9869 15.8455L42.0313 15.8581L42.1497 15.8899L42.361 15.9533C42.3755 15.9609 42.3915 15.9652 42.4079 15.9661C42.4243 15.967 42.4406 15.9643 42.4559 15.9583C42.4711 15.9523 42.4849 15.9431 42.4962 15.9312C42.5076 15.9194 42.5163 15.9053 42.5217 15.8899L42.621 15.7799L42.6633 15.7377L42.8387 15.5686C42.8852 15.5411 42.919 15.5136 42.8979 15.4502C42.8303 15.2388 42.769 15.0275 42.7013 14.8161C42.6717 14.7273 42.6739 14.7062 42.7478 14.6512C42.9791 14.482 43.2261 14.3355 43.4855 14.2137C43.5764 14.1714 43.5785 14.1714 43.6525 14.2454L43.9717 14.5561C44.0097 14.5984 44.0456 14.6407 44.0837 14.6808C44.1725 14.7717 44.1725 14.7717 44.295 14.7168L44.7453 14.6005C44.7638 14.5976 44.781 14.5889 44.7943 14.5756C44.8076 14.5623 44.8163 14.5451 44.8192 14.5265L44.8763 14.2602C44.9101 14.1334 44.9418 14.0087 44.9757 13.884C45.0095 13.7593 45.0031 13.7677 45.1067 13.7614C45.3054 13.7487 45.5041 13.7424 45.7028 13.7381C45.7789 13.7381 45.8549 13.7381 45.931 13.7508C46.0494 13.7508 46.0473 13.7508 46.079 13.865C46.098 13.9347 46.1192 14.0045 46.1403 14.0763C46.1762 14.22 46.2122 14.3659 46.246 14.5096C46.2496 14.5301 46.2598 14.5489 46.2751 14.563C46.2903 14.5771 46.3098 14.5858 46.3305 14.5878C46.4595 14.6132 46.5863 14.6449 46.7131 14.6724L46.7321 14.6851C46.7794 14.7135 46.8359 14.7224 46.8896 14.7098C46.9433 14.6971 46.99 14.664 47.0196 14.6174C47.1401 14.4695 47.2796 14.3363 47.4106 14.1947C47.4782 14.1249 47.4804 14.1249 47.5691 14.1651C47.8304 14.2839 48.0808 14.4254 48.3174 14.5878C48.3453 14.6122 48.3701 14.6399 48.3914 14.6703L48.18 15.3847C48.1736 15.4066 48.1745 15.4299 48.1825 15.4512C48.1905 15.4726 48.2052 15.4907 48.2244 15.5031C48.3301 15.6024 48.4357 15.7039 48.5372 15.8053C48.5731 15.8391 48.6048 15.8751 48.6387 15.911L48.7528 15.8687L49.315 15.706C49.4376 15.67 49.4397 15.6679 49.5116 15.7715C49.5835 15.8751 49.6596 15.9829 49.7335 16.1054C49.8211 16.2596 49.8988 16.4191 49.9661 16.5831L49.3869 17.1686C49.4397 17.3589 49.4905 17.547 49.5412 17.7351C49.5445 17.7558 49.5543 17.7749 49.5691 17.7897C49.5839 17.8045 49.603 17.8142 49.6236 17.8175C49.7547 17.845 49.8857 17.8767 50.0168 17.9063C50.1098 17.9296 50.2049 17.957 50.3 17.9761C50.3228 17.9782 50.3439 17.9891 50.3589 18.0064C50.3738 18.0237 50.3815 18.0462 50.3803 18.0691C50.3803 18.124 50.3909 18.1811 50.3951 18.2382C50.3951 18.4664 50.3951 18.6968 50.3951 18.9251C50.3951 19.0435 50.3951 19.0435 50.2789 19.0709C50.0675 19.1259 49.8561 19.183 49.6575 19.2337C49.6314 19.2374 49.6073 19.2499 49.5893 19.2691C49.5712 19.2883 49.5602 19.3131 49.5581 19.3394C49.5264 19.4937 49.4862 19.6459 49.4397 19.7959C49.4268 19.8255 49.4244 19.8586 49.4329 19.8897C49.4413 19.9209 49.4602 19.9482 49.4862 19.9671C49.6405 20.1088 49.7927 20.2546 49.9449 20.3899C50.0189 20.4617 50.0252 20.466 49.9766 20.5569C49.8646 20.7682 49.7483 20.9796 49.63 21.191C49.594 21.2544 49.5497 21.3114 49.5074 21.3727L49.3911 21.3431C49.1798 21.2903 48.9916 21.2375 48.793 21.1783C48.7646 21.1675 48.7334 21.1664 48.7044 21.1752C48.6753 21.184 48.65 21.2022 48.6323 21.2269C48.5309 21.341 48.4209 21.4509 48.311 21.5545C48.2855 21.574 48.2672 21.6013 48.2588 21.6322C48.2504 21.6632 48.2524 21.696 48.2645 21.7257C48.3237 21.9075 48.3787 22.0914 48.4294 22.2753C48.4801 22.4592 48.5055 22.4169 48.3406 22.5226C48.1398 22.6536 47.9285 22.7741 47.7234 22.8988L47.696 22.92C47.6816 22.9222 47.6674 22.9258 47.6537 22.9305C47.6414 22.941 47.6268 22.9487 47.6112 22.9529C47.5956 22.9572 47.5792 22.9579 47.5632 22.9551C47.5473 22.9523 47.5321 22.9459 47.5189 22.9366C47.5057 22.9272 47.4947 22.915 47.4867 22.9009C47.4487 22.8544 47.4 22.8185 47.3578 22.7762L47.3366 22.7551C47.3366 22.7551 47.3366 22.7297 47.3261 22.7213L46.9646 22.4C46.7913 22.4465 46.6138 22.5014 46.432 22.5437C46.4041 22.5471 46.3781 22.5594 46.3579 22.5788C46.3377 22.5983 46.3244 22.6238 46.32 22.6515C46.2819 22.827 46.2396 23.0024 46.1974 23.1778C46.1804 23.2433 46.1614 23.3089 46.1424 23.3892L45.5548 23.4272L45.3012 23.4146H45.2737C45.0813 23.3976 45.0835 23.3976 45.0327 23.2138L44.9186 22.81C44.9186 22.753 44.8953 22.698 44.8826 22.6409C44.8799 22.6244 44.8718 22.6092 44.8596 22.5978C44.8474 22.5863 44.8317 22.5792 44.815 22.5775C44.6396 22.5353 44.4641 22.4888 44.2908 22.4423C44.2729 22.4353 44.2532 22.4342 44.2346 22.4391C44.2159 22.4441 44.1994 22.4548 44.1873 22.4697L44.1238 22.5353C43.9865 22.6811 43.8469 22.8227 43.7011 22.9707C43.6861 22.9926 43.6631 23.0078 43.637 23.0129C43.6109 23.0181 43.5838 23.0128 43.5616 22.9982C43.5257 22.9764 43.4883 22.9573 43.4496 22.9411ZM44.5571 21.5292L44.6417 21.563C45.112 21.7098 45.6107 21.7417 46.0959 21.656C46.8235 21.53 47.4829 21.1502 47.9569 20.5841C48.431 20.0179 48.689 19.3021 48.6852 18.5637C48.6953 17.8105 48.4179 17.0818 47.9094 16.5261C47.5458 16.0919 47.0673 15.7687 46.5288 15.5934C45.9902 15.4181 45.4132 15.3978 44.8636 15.5348C44.2104 15.6803 43.6218 16.0334 43.1859 16.5413C42.75 17.0491 42.4903 17.6845 42.4456 18.3523C42.4112 18.7609 42.4594 19.1722 42.5872 19.5619C42.715 19.9515 42.9199 20.3114 43.1896 20.6203C43.4101 20.8865 43.6781 21.1094 43.9801 21.2776C44.1589 21.3882 44.3534 21.4709 44.5571 21.5228V21.5292Z" fill="#3AB4F2"/>
<path d="M28.7212 17.2511C28.5732 17.1644 28.4232 17.0799 28.2752 16.9911C28.2139 16.9552 28.1569 16.9087 28.0934 16.8728C28.0805 16.8668 28.0688 16.8584 28.0592 16.848C28.0495 16.8375 28.042 16.8253 28.0371 16.8119C28.0321 16.7985 28.0299 16.7843 28.0305 16.7701C28.0311 16.7559 28.0346 16.7419 28.0406 16.729C28.0956 16.5346 28.1484 16.338 28.2034 16.1414C28.2393 16.0083 28.2393 16.0083 28.123 15.9174L27.7299 15.5602L27.2289 15.7145C27.1696 15.7274 27.1111 15.7437 27.0535 15.7631C27.0411 15.7702 27.0272 15.7746 27.013 15.7759C26.9987 15.7773 26.9843 15.7757 26.9707 15.7711C26.9571 15.7665 26.9447 15.7591 26.9342 15.7493C26.9237 15.7395 26.9154 15.7277 26.9098 15.7145C26.8252 15.5792 26.7365 15.446 26.6498 15.3108L26.6033 15.2473L26.4744 14.981C26.43 14.8859 26.4321 14.8859 26.5018 14.814L26.7026 14.6027L26.9838 14.33C26.9977 14.3176 27.0074 14.3011 27.0112 14.2828C27.015 14.2645 27.0128 14.2455 27.0049 14.2285C26.9563 14.0637 26.9077 13.8967 26.8696 13.7297C26.8654 13.7035 26.8525 13.6794 26.833 13.6614C26.8134 13.6433 26.7883 13.6324 26.7618 13.6304C26.6583 13.6092 26.5505 13.5839 26.449 13.5585L26.0453 13.4613C26.0026 13.1376 25.9913 12.8106 26.0115 12.4848C26.0129 12.4601 26.023 12.4368 26.04 12.419C26.0571 12.4012 26.0799 12.39 26.1045 12.3875C26.3158 12.3347 26.5272 12.2755 26.728 12.2269C26.7615 12.2219 26.7923 12.2059 26.8157 12.1814C26.839 12.1569 26.8535 12.1253 26.8569 12.0916C26.8886 11.9458 26.9267 11.7999 26.969 11.6689C26.9807 11.6386 26.9823 11.6054 26.9735 11.5741C26.9648 11.5429 26.9461 11.5153 26.9203 11.4956C26.7639 11.3539 26.6118 11.2081 26.4596 11.0623C26.3898 10.9925 26.3877 10.9904 26.4279 10.9037C26.5467 10.6418 26.6881 10.3907 26.8506 10.1534C26.8637 10.1283 26.8857 10.109 26.9123 10.0993C26.9388 10.0895 26.9681 10.09 26.9943 10.1005C27.081 10.1259 27.1655 10.1449 27.2522 10.1661L27.2945 10.1787L27.4128 10.2104L27.6242 10.2739C27.6387 10.2814 27.6547 10.2858 27.6711 10.2867C27.6874 10.2876 27.7038 10.2849 27.719 10.2789C27.7343 10.2729 27.748 10.2636 27.7594 10.2518C27.7707 10.24 27.7794 10.2259 27.7848 10.2104L27.8842 10.1005L27.9265 10.0583L28.1019 9.88916C28.1484 9.86168 28.1822 9.83421 28.1611 9.7708C28.0934 9.55943 28.0321 9.34806 27.9645 9.13669C27.9349 9.04792 27.937 9.02678 28.011 8.97183C28.2423 8.80263 28.4893 8.65611 28.7487 8.53429C28.8396 8.48991 28.8417 8.49202 28.9157 8.566L29.2348 8.87671C29.2729 8.91898 29.3088 8.96126 29.3469 9.00142C29.4356 9.09231 29.4356 9.09019 29.5582 9.03735L30.0084 8.9211C30.027 8.91819 30.0442 8.90946 30.0575 8.89616C30.0708 8.88287 30.0795 8.86569 30.0824 8.84712L30.1395 8.58079L30.2388 8.20245C30.2663 8.09465 30.2663 8.08831 30.3699 8.08197C30.5686 8.06928 30.7672 8.06294 30.9659 8.05872C31.042 8.05872 31.1181 8.05872 31.1942 8.0714C31.3126 8.0714 31.3105 8.0714 31.3422 8.18554C31.3612 8.25529 31.3823 8.32504 31.4035 8.3969C31.4394 8.54063 31.4753 8.68648 31.5091 8.81964C31.5131 8.83998 31.5234 8.85854 31.5386 8.87261C31.5538 8.88668 31.5731 8.89552 31.5937 8.89785C31.7226 8.92321 31.8495 8.95492 31.9763 8.98239H31.9953C32.0423 9.01107 32.0986 9.02026 32.1523 9.00803C32.206 8.99579 32.2528 8.96308 32.2828 8.91687C32.4032 8.76891 32.5427 8.63575 32.6738 8.49413C32.7414 8.42438 32.7435 8.42438 32.8323 8.46454C33.0938 8.58292 33.3442 8.72439 33.5806 8.88728C33.6085 8.91167 33.6333 8.93935 33.6545 8.96971L33.4432 9.68413C33.4368 9.70601 33.4377 9.72936 33.4457 9.75069C33.4537 9.77202 33.4684 9.79019 33.4876 9.8025C33.5932 9.89973 33.6989 10.0139 33.8004 10.1026C33.8363 10.1386 33.868 10.1745 33.9018 10.2104L34.016 10.1682L34.5782 10.0054C34.7008 9.96948 34.7029 9.96737 34.7748 10.0709C34.8466 10.1745 34.9227 10.2823 34.9862 10.4049C35.0737 10.559 35.1514 10.7186 35.2187 10.8826L34.6395 11.4681C34.6924 11.6583 34.7431 11.8464 34.7938 12.0345C34.7969 12.0551 34.8066 12.0741 34.8215 12.0886C34.8364 12.1031 34.8556 12.1123 34.8762 12.1149L35.2694 12.2036C35.3624 12.229 35.4575 12.2544 35.5526 12.2755C35.564 12.2763 35.5751 12.2794 35.5853 12.2845C35.5955 12.2896 35.6046 12.2967 35.6121 12.3053C35.6196 12.314 35.6253 12.324 35.6288 12.3348C35.6324 12.3457 35.6338 12.3571 35.6329 12.3685C35.6329 12.4235 35.6435 12.4805 35.6477 12.5376C35.6477 12.7659 35.6477 12.9963 35.6477 13.2245C35.6477 13.3408 35.6477 13.3429 35.5315 13.3704L34.9101 13.5331C34.884 13.5369 34.8599 13.5494 34.8419 13.5686C34.8238 13.5878 34.8128 13.6126 34.8107 13.6388C34.779 13.7931 34.7389 13.9453 34.6924 14.0954C34.6796 14.1246 34.6772 14.1574 34.6857 14.1882C34.6942 14.2189 34.7129 14.2459 34.7389 14.2645C34.8932 14.4061 35.0453 14.5541 35.1975 14.6999C35.2715 14.7718 35.2778 14.776 35.2292 14.8648C35.1172 15.0761 35.0009 15.2875 34.8826 15.4989C34.8466 15.5602 34.8023 15.6172 34.76 15.6806L34.6437 15.6511C34.4429 15.5961 34.2443 15.5433 34.0456 15.4862C34.0172 15.4754 33.986 15.4743 33.957 15.4831C33.9279 15.4919 33.9026 15.5101 33.8849 15.5348C33.7835 15.6489 33.6736 15.7589 33.5636 15.8624C33.5379 15.8816 33.5193 15.909 33.5108 15.94C33.5024 15.971 33.5046 16.004 33.5171 16.0336C33.5763 16.2154 33.6313 16.3993 33.682 16.5832C33.7327 16.7671 33.7581 16.7248 33.5932 16.8305C33.3924 16.9615 33.1811 17.082 32.976 17.2067L32.9486 17.2279C32.9342 17.2301 32.92 17.2337 32.9063 17.2384C32.8938 17.2486 32.8793 17.2559 32.8637 17.26C32.8481 17.264 32.8319 17.2647 32.816 17.2618C32.8002 17.259 32.7851 17.2528 32.7719 17.2437C32.7587 17.2346 32.7475 17.2227 32.7393 17.2088C32.699 17.1646 32.6559 17.123 32.6104 17.0841L32.5892 17.063C32.5892 17.0503 32.5892 17.0355 32.5892 17.0292L32.232 16.6889C32.0587 16.7354 31.8812 16.7903 31.6994 16.8326C31.6714 16.8356 31.6452 16.8478 31.6249 16.8673C31.6046 16.8868 31.5914 16.9125 31.5874 16.9404C31.5493 17.1158 31.507 17.2913 31.4648 17.4646C31.4479 17.5322 31.4288 17.5978 31.4098 17.676L30.8222 17.714L30.5686 17.7013H30.558C30.3656 17.6844 30.3678 17.6844 30.317 17.49L30.2029 17.0862C30.2029 17.0292 30.1796 16.9742 30.167 16.9171C30.164 16.9005 30.1559 16.8852 30.1438 16.8734C30.1316 16.8617 30.1161 16.854 30.0993 16.8516C29.9239 16.8093 29.7485 16.765 29.5751 16.7185C29.5572 16.7115 29.5375 16.7104 29.5189 16.7153C29.5003 16.7203 29.4837 16.731 29.4716 16.7459L29.4082 16.8115C29.2708 16.9552 29.1313 17.0989 28.996 17.2469C28.9886 17.2578 28.9791 17.2671 28.968 17.2743C28.9569 17.2815 28.9445 17.2865 28.9316 17.2888C28.9186 17.2912 28.9052 17.2909 28.8923 17.2881C28.8795 17.2852 28.8673 17.2799 28.8565 17.2722C28.812 17.2616 28.7668 17.2545 28.7212 17.2511ZM29.8288 15.8392L29.9133 15.873C30.3838 16.0191 30.8825 16.0503 31.3675 15.9639C32.0948 15.8388 32.7541 15.4599 33.2282 14.8944C33.7023 14.329 33.9605 13.6137 33.9568 12.8758C33.9675 12.1219 33.69 11.3923 33.1811 10.8361C32.8168 10.4027 32.3383 10.0802 31.7998 9.90532C31.2614 9.73045 30.6846 9.7102 30.1353 9.84689C29.4849 9.99144 28.8985 10.3417 28.4629 10.8458C28.0274 11.3499 27.7659 11.981 27.7172 12.6454C27.6829 13.054 27.731 13.4653 27.8588 13.855C27.9867 14.2446 28.1915 14.6045 28.4612 14.9134C28.6817 15.1796 28.9498 15.4025 29.2517 15.5707C29.4291 15.6895 29.6237 15.78 29.8288 15.8392Z" fill="#3AB4F2"/>
</svg>
