<svg width="24" height="24" viewBox="0 0 24 24" fill="none" xmlns="http://www.w3.org/2000/svg">
<path d="M21.2292 10.1144C20.6532 9.15439 19.6932 7.85039 18.3572 6.70039L20.5272 4.5304C20.8202 4.2374 20.8202 3.76237 20.5272 3.46937C20.2342 3.17637 19.7592 3.17637 19.4662 3.46937L13.9332 9.00239L13.9312 9.00337L13.9302 9.0044L3.46518 19.4694C3.17218 19.7624 3.17218 20.2374 3.46518 20.5304C3.61118 20.6764 3.80318 20.7504 3.99518 20.7504C4.18718 20.7504 4.37918 20.6774 4.52518 20.5304L6.83518 18.2203C8.41918 19.2323 10.1522 19.7504 11.9972 19.7504C16.9442 19.7504 19.9032 16.0774 21.2282 13.8854C21.9262 12.7224 21.9262 11.2784 21.2292 10.1144ZM14.7472 12.0004C14.7472 13.5174 13.5132 14.7504 11.9972 14.7504C11.5192 14.7504 11.0682 14.6183 10.6662 14.3923L14.3882 10.6704C14.6152 11.0714 14.7472 11.5224 14.7472 12.0004ZM19.9452 13.1124C18.7852 15.0314 16.2102 18.2504 11.9992 18.2504C10.5582 18.2504 9.20119 17.8553 7.94019 17.1173L9.57517 15.4824C10.2782 15.9774 11.1132 16.2504 11.9962 16.2504C14.3392 16.2504 16.2462 14.3434 16.2462 12.0004C16.2462 11.1174 15.9732 10.2824 15.4782 9.57935L17.2952 7.7624C18.5272 8.8004 19.4142 10.0044 19.9432 10.8854C20.3542 11.5734 20.3542 12.4274 19.9452 13.1124ZM4.12818 15.7833C3.63018 15.1933 3.17318 14.5554 2.77018 13.8874C2.07418 12.7214 2.07417 11.2774 2.76917 10.1154C4.09417 7.92336 7.05319 4.25037 12.0002 4.25037C12.9562 4.25037 13.8802 4.38837 14.8252 4.67237C15.2212 4.79137 15.4472 5.20939 15.3272 5.60639C15.2082 6.00339 14.7902 6.22835 14.3932 6.10835C13.5902 5.86735 12.8072 5.75037 11.9992 5.75037C7.78918 5.75037 5.21316 8.96937 4.05316 10.8884C3.64416 11.5734 3.64418 12.4274 4.05518 13.1154C4.41618 13.7134 4.82617 14.2864 5.27417 14.8164C5.54117 15.1324 5.50118 15.6064 5.18518 15.8734C5.04418 15.9924 4.87318 16.0504 4.70218 16.0504C4.48818 16.0504 4.27618 15.9593 4.12818 15.7833ZM12.1882 8.43537C12.2512 8.84437 11.9712 9.22735 11.5612 9.29035C10.4012 9.46935 9.46718 10.4044 9.28818 11.5634C9.23118 11.9344 8.91219 12.1993 8.54819 12.1993C8.51019 12.1993 8.47117 12.1964 8.43317 12.1904C8.02317 12.1274 7.74319 11.7444 7.80619 11.3354C8.08819 9.5074 9.50619 8.09036 11.3332 7.80836C11.7362 7.74636 12.1242 8.02637 12.1882 8.43537Z" fill="#525050"/>
</svg>
