<svg width="17" height="17" viewBox="0 0 17 17" fill="none" xmlns="http://www.w3.org/2000/svg">
<path d="M15.8955 1.10538C15.1832 0.392255 14.2356 0 13.2261 0C12.2183 0 11.2706 0.392255 10.5566 1.10538L1.37408 10.288C1.01839 10.6428 0.786514 11.0934 0.703695 11.5895L0.0150022 15.72C-0.0434075 16.0696 0.0707877 16.4271 0.321862 16.6773C0.529348 16.8848 0.810035 16.999 1.09947 16.999C1.15875 16.999 1.21982 16.9947 1.2791 16.9842L5.41046 16.2955C5.90564 16.2135 6.35548 15.9816 6.71117 15.6259L15.8937 6.44337C16.6068 5.73025 17 4.78261 17 3.77395C17 2.76529 16.6095 1.8185 15.8955 1.10538ZM5.78883 14.7018C5.62668 14.864 5.4227 14.9686 5.19778 15.0061L1.35493 15.646L1.99483 11.804C2.03231 11.5782 2.1378 11.3743 2.29908 11.213L9.34574 4.16632L12.8346 7.65517L5.78883 14.7018ZM14.9714 5.51933L13.7596 6.73102L10.2707 3.24217L11.4825 2.03037C11.9489 1.56484 12.5678 1.30768 13.2269 1.30768C13.886 1.30768 14.5058 1.56397 14.9714 2.03037C15.4369 2.49678 15.6941 3.11573 15.6941 3.7748C15.6941 4.43387 15.4369 5.05292 14.9714 5.51933Z" fill="#5C5451"/>
</svg>
