<svg width="18" height="19" viewBox="0 0 18 19" fill="none" xmlns="http://www.w3.org/2000/svg">
<path d="M1 13.2941L5 17.0589M5 17.0589L9 13.2941M5 17.0589L5 4.00003C5 2.89546 5.89543 2.00003 7 2.00003V2.00003" stroke="#5C5451" stroke-width="1.5" stroke-linecap="round" stroke-linejoin="round"/>
<path d="M9.51402 6.31086C9.21239 6.59474 8.73774 6.58036 8.45385 6.27873C8.16996 5.9771 8.18435 5.50244 8.48598 5.21856L9.51402 6.31086ZM13 2L12.486 1.45385L13 0.970064L13.514 1.45385L13 2ZM17.514 5.21856C17.8157 5.50244 17.83 5.9771 17.5462 6.27873C17.2623 6.58036 16.7876 6.59474 16.486 6.31086L17.514 5.21856ZM13 16L13.75 16L13.75 16L13 16ZM11 18.75C10.5858 18.75 10.25 18.4142 10.25 18C10.25 17.5858 10.5858 17.25 11 17.25L11 18.75ZM8.48598 5.21856L12.486 1.45385L13.514 2.54615L9.51402 6.31086L8.48598 5.21856ZM13.514 1.45385L17.514 5.21856L16.486 6.31086L12.486 2.54615L13.514 1.45385ZM13.75 2L13.75 16L12.25 16L12.25 2L13.75 2ZM13.75 16C13.75 17.5188 12.5188 18.75 11 18.75L11 17.25C11.6904 17.25 12.25 16.6904 12.25 16L13.75 16Z" fill="#5C5451"/>
</svg>
